<svg xmlns="http://www.w3.org/2000/svg" xmlns:xlink="http://www.w3.org/1999/xlink" width="500" zoomAndPan="magnify" viewBox="0 0 375 449.999984" height="600" preserveAspectRatio="xMidYMid meet" version="1.0"><defs><g/><clipPath id="938a0b43de"><path d="M 45.214844 12.347656 L 329.464844 12.347656 L 329.464844 437.597656 L 45.214844 437.597656 Z M 45.214844 12.347656 " clip-rule="nonzero"/></clipPath></defs><path fill="#ffffff" d="M 85.035156 14.972656 L 289.644531 14.972656 C 290.878906 14.972656 292.109375 15.03125 293.335938 15.152344 C 294.5625 15.273438 295.78125 15.457031 296.992188 15.695312 C 298.203125 15.9375 299.398438 16.238281 300.578125 16.59375 C 301.757812 16.953125 302.917969 17.367188 304.054688 17.839844 C 305.195312 18.3125 306.308594 18.839844 307.394531 19.421875 C 308.484375 20.003906 309.539062 20.636719 310.566406 21.324219 C 311.589844 22.011719 312.582031 22.746094 313.535156 23.527344 C 314.488281 24.3125 315.398438 25.140625 316.273438 26.011719 C 317.144531 26.882812 317.972656 27.796875 318.753906 28.753906 C 319.535156 29.707031 320.269531 30.695312 320.953125 31.722656 C 321.640625 32.75 322.273438 33.808594 322.855469 34.894531 C 323.4375 35.984375 323.960938 37.097656 324.433594 38.238281 C 324.90625 39.378906 325.320312 40.542969 325.679688 41.722656 C 326.039062 42.902344 326.335938 44.101562 326.578125 45.3125 C 326.816406 46.523438 327 47.742188 327.121094 48.96875 C 327.242188 50.199219 327.300781 51.429688 327.300781 52.664062 L 327.300781 397.253906 C 327.300781 398.488281 327.242188 399.71875 327.121094 400.945312 C 327 402.175781 326.816406 403.394531 326.578125 404.605469 C 326.335938 405.816406 326.039062 407.011719 325.679688 408.195312 C 325.320312 409.375 324.90625 410.535156 324.433594 411.675781 C 323.960938 412.816406 323.4375 413.933594 322.855469 415.019531 C 322.273438 416.109375 321.640625 417.167969 320.953125 418.191406 C 320.269531 419.21875 319.535156 420.210938 318.753906 421.164062 C 317.972656 422.117188 317.144531 423.03125 316.273438 423.90625 C 315.398438 424.777344 314.488281 425.605469 313.535156 426.390625 C 312.582031 427.171875 311.589844 427.90625 310.566406 428.59375 C 309.539062 429.277344 308.484375 429.914062 307.394531 430.492188 C 306.308594 431.074219 305.195312 431.601562 304.054688 432.074219 C 302.917969 432.546875 301.757812 432.964844 300.578125 433.320312 C 299.398438 433.679688 298.203125 433.980469 296.992188 434.21875 C 295.78125 434.460938 294.5625 434.640625 293.335938 434.761719 C 292.109375 434.882812 290.878906 434.945312 289.644531 434.945312 L 85.035156 434.945312 C 83.800781 434.945312 82.570312 434.882812 81.34375 434.761719 C 80.117188 434.640625 78.898438 434.460938 77.6875 434.21875 C 76.480469 433.980469 75.285156 433.679688 74.105469 433.320312 C 72.925781 432.964844 71.765625 432.546875 70.625 432.074219 C 69.484375 431.601562 68.371094 431.074219 67.285156 430.492188 C 66.195312 429.914062 65.140625 429.277344 64.113281 428.59375 C 63.089844 427.90625 62.101562 427.171875 61.148438 426.390625 C 60.195312 425.605469 59.28125 424.777344 58.410156 423.90625 C 57.535156 423.03125 56.710938 422.117188 55.925781 421.164062 C 55.144531 420.210938 54.410156 419.21875 53.726562 418.191406 C 53.039062 417.167969 52.40625 416.109375 51.824219 415.019531 C 51.246094 413.933594 50.71875 412.816406 50.246094 411.675781 C 49.773438 410.535156 49.359375 409.375 49 408.195312 C 48.644531 407.011719 48.34375 405.816406 48.101562 404.605469 C 47.863281 403.394531 47.683594 402.175781 47.5625 400.945312 C 47.441406 399.71875 47.378906 398.488281 47.378906 397.253906 L 47.378906 52.664062 C 47.378906 51.429688 47.441406 50.199219 47.5625 48.96875 C 47.683594 47.742188 47.863281 46.523438 48.101562 45.3125 C 48.34375 44.101562 48.644531 42.902344 49 41.722656 C 49.359375 40.542969 49.773438 39.378906 50.246094 38.238281 C 50.71875 37.097656 51.246094 35.984375 51.824219 34.894531 C 52.40625 33.808594 53.039062 32.75 53.726562 31.722656 C 54.410156 30.695312 55.144531 29.707031 55.925781 28.753906 C 56.710938 27.796875 57.535156 26.882812 58.410156 26.011719 C 59.28125 25.140625 60.195312 24.3125 61.148438 23.527344 C 62.101562 22.746094 63.089844 22.011719 64.113281 21.324219 C 65.140625 20.636719 66.195312 20.003906 67.285156 19.421875 C 68.371094 18.839844 69.484375 18.3125 70.625 17.839844 C 71.765625 17.367188 72.925781 16.953125 74.105469 16.59375 C 75.285156 16.238281 76.480469 15.9375 77.6875 15.695312 C 78.898438 15.457031 80.117188 15.273438 81.34375 15.152344 C 82.570312 15.03125 83.800781 14.972656 85.035156 14.972656 Z M 85.035156 14.972656 " fill-opacity="1" fill-rule="nonzero"/><g clip-path="url(#938a0b43de)"><path fill="#ffffff" d="M 289.644531 437.113281 L 85.042969 437.113281 C 83.738281 437.113281 82.4375 437.046875 81.140625 436.917969 C 79.839844 436.792969 78.550781 436.601562 77.273438 436.34375 C 75.992188 436.089844 74.730469 435.773438 73.480469 435.394531 C 72.234375 435.015625 71.007812 434.578125 69.800781 434.078125 C 68.597656 433.578125 67.417969 433.019531 66.269531 432.402344 C 65.117188 431.789062 64 431.117188 62.917969 430.394531 C 61.832031 429.667969 60.785156 428.890625 59.777344 428.0625 C 58.769531 427.234375 57.804688 426.359375 56.878906 425.433594 C 55.957031 424.511719 55.082031 423.546875 54.257812 422.535156 C 53.429688 421.527344 52.652344 420.480469 51.925781 419.394531 C 51.203125 418.308594 50.53125 417.1875 49.917969 416.039062 C 49.304688 414.886719 48.746094 413.707031 48.246094 412.5 C 47.746094 411.292969 47.308594 410.066406 46.929688 408.816406 C 46.550781 407.566406 46.234375 406.300781 45.980469 405.023438 C 45.726562 403.742188 45.535156 402.449219 45.40625 401.152344 C 45.28125 399.851562 45.214844 398.550781 45.214844 397.242188 L 45.214844 52.671875 C 45.214844 51.367188 45.28125 50.066406 45.40625 48.765625 C 45.535156 47.464844 45.726562 46.175781 45.980469 44.894531 C 46.234375 43.613281 46.550781 42.347656 46.929688 41.101562 C 47.308594 39.851562 47.746094 38.621094 48.246094 37.417969 C 48.746094 36.210938 49.304688 35.03125 49.917969 33.878906 C 50.53125 32.726562 51.203125 31.609375 51.925781 30.523438 C 52.652344 29.4375 53.429688 28.390625 54.257812 27.382812 C 55.082031 26.371094 55.957031 25.40625 56.878906 24.480469 C 57.804688 23.558594 58.769531 22.683594 59.777344 21.855469 C 60.785156 21.027344 61.832031 20.25 62.917969 19.523438 C 64 18.796875 65.117188 18.128906 66.269531 17.511719 C 67.417969 16.898438 68.597656 16.339844 69.800781 15.839844 C 71.007812 15.339844 72.234375 14.902344 73.480469 14.523438 C 74.730469 14.144531 75.992188 13.824219 77.273438 13.570312 C 78.550781 13.316406 79.839844 13.125 81.140625 12.996094 C 82.4375 12.867188 83.738281 12.804688 85.042969 12.804688 L 289.644531 12.804688 C 290.949219 12.804688 292.25 12.867188 293.550781 12.996094 C 294.847656 13.125 296.136719 13.316406 297.417969 13.570312 C 298.695312 13.824219 299.960938 14.144531 301.207031 14.523438 C 302.457031 14.902344 303.683594 15.339844 304.886719 15.839844 C 306.09375 16.339844 307.269531 16.898438 308.421875 17.511719 C 309.570312 18.128906 310.6875 18.796875 311.773438 19.523438 C 312.859375 20.25 313.90625 21.027344 314.914062 21.855469 C 315.921875 22.683594 316.886719 23.558594 317.808594 24.480469 C 318.730469 25.40625 319.605469 26.371094 320.433594 27.382812 C 321.261719 28.390625 322.035156 29.4375 322.761719 30.523438 C 323.488281 31.609375 324.15625 32.726562 324.769531 33.878906 C 325.386719 35.03125 325.941406 36.210938 326.441406 37.417969 C 326.941406 38.621094 327.378906 39.851562 327.757812 41.101562 C 328.136719 42.347656 328.453125 43.613281 328.707031 44.894531 C 328.964844 46.175781 329.15625 47.464844 329.28125 48.765625 C 329.410156 50.066406 329.472656 51.367188 329.472656 52.671875 L 329.472656 397.253906 C 329.472656 398.558594 329.410156 399.859375 329.28125 401.160156 C 329.152344 402.457031 328.960938 403.75 328.707031 405.027344 C 328.453125 406.308594 328.136719 407.574219 327.757812 408.824219 C 327.378906 410.074219 326.9375 411.300781 326.441406 412.507812 C 325.941406 413.710938 325.382812 414.890625 324.769531 416.042969 C 324.152344 417.195312 323.484375 418.3125 322.757812 419.398438 C 322.035156 420.484375 321.257812 421.53125 320.429688 422.539062 C 319.601562 423.546875 318.726562 424.515625 317.804688 425.4375 C 316.882812 426.359375 315.917969 427.234375 314.910156 428.0625 C 313.902344 428.890625 312.855469 429.667969 311.769531 430.394531 C 310.6875 431.121094 309.570312 431.789062 308.417969 432.40625 C 307.269531 433.019531 306.089844 433.578125 304.886719 434.078125 C 303.679688 434.578125 302.453125 435.015625 301.207031 435.394531 C 299.957031 435.773438 298.695312 436.089844 297.414062 436.347656 C 296.136719 436.601562 294.847656 436.792969 293.550781 436.917969 C 292.25 437.046875 290.949219 437.113281 289.644531 437.113281 Z M 85.042969 17.136719 C 83.878906 17.136719 82.722656 17.195312 81.5625 17.308594 C 80.40625 17.421875 79.257812 17.59375 78.117188 17.820312 C 76.976562 18.046875 75.851562 18.332031 74.738281 18.667969 C 73.625 19.007812 72.53125 19.398438 71.457031 19.84375 C 70.382812 20.289062 69.335938 20.785156 68.308594 21.335938 C 67.285156 21.882812 66.289062 22.480469 65.320312 23.128906 C 64.355469 23.773438 63.421875 24.464844 62.523438 25.203125 C 61.625 25.941406 60.765625 26.722656 59.941406 27.546875 C 59.121094 28.371094 58.339844 29.230469 57.601562 30.128906 C 56.863281 31.03125 56.171875 31.964844 55.527344 32.929688 C 54.882812 33.898438 54.285156 34.894531 53.734375 35.921875 C 53.1875 36.949219 52.691406 38 52.246094 39.074219 C 51.800781 40.148438 51.410156 41.246094 51.074219 42.359375 C 50.734375 43.472656 50.453125 44.597656 50.226562 45.742188 C 50 46.882812 49.828125 48.03125 49.714844 49.191406 C 49.601562 50.347656 49.542969 51.507812 49.542969 52.671875 L 49.542969 397.253906 C 49.542969 398.417969 49.601562 399.578125 49.714844 400.734375 C 49.828125 401.894531 50 403.042969 50.226562 404.183594 C 50.453125 405.328125 50.734375 406.453125 51.074219 407.566406 C 51.410156 408.679688 51.800781 409.777344 52.246094 410.851562 C 52.691406 411.925781 53.1875 412.976562 53.734375 414.003906 C 54.285156 415.03125 54.882812 416.027344 55.527344 416.996094 C 56.171875 417.960938 56.863281 418.894531 57.601562 419.796875 C 58.339844 420.695312 59.121094 421.554688 59.941406 422.378906 C 60.765625 423.203125 61.625 423.984375 62.523438 424.722656 C 63.421875 425.460938 64.355469 426.152344 65.320312 426.796875 C 66.289062 427.445312 67.285156 428.042969 68.308594 428.589844 C 69.335938 429.140625 70.382812 429.636719 71.457031 430.082031 C 72.53125 430.527344 73.625 430.917969 74.738281 431.257812 C 75.851562 431.59375 76.976562 431.875 78.117188 432.105469 C 79.257812 432.332031 80.40625 432.5 81.5625 432.617188 C 82.722656 432.730469 83.878906 432.785156 85.042969 432.785156 L 289.644531 432.785156 C 290.808594 432.785156 291.96875 432.730469 293.125 432.617188 C 294.28125 432.5 295.429688 432.332031 296.570312 432.105469 C 297.710938 431.875 298.839844 431.59375 299.949219 431.257812 C 301.0625 430.917969 302.15625 430.527344 303.230469 430.082031 C 304.304688 429.636719 305.355469 429.140625 306.378906 428.589844 C 307.40625 428.042969 308.402344 427.445312 309.367188 426.796875 C 310.335938 426.152344 311.269531 425.460938 312.167969 424.722656 C 313.066406 423.984375 313.925781 423.203125 314.746094 422.378906 C 315.570312 421.554688 316.347656 420.695312 317.085938 419.796875 C 317.824219 418.894531 318.515625 417.960938 319.164062 416.996094 C 319.808594 416.027344 320.40625 415.03125 320.953125 414.003906 C 321.5 412.976562 321.996094 411.925781 322.441406 410.851562 C 322.886719 409.777344 323.277344 408.679688 323.617188 407.566406 C 323.953125 406.453125 324.234375 405.328125 324.460938 404.183594 C 324.691406 403.042969 324.859375 401.894531 324.972656 400.734375 C 325.089844 399.578125 325.144531 398.417969 325.144531 397.253906 L 325.144531 52.671875 C 325.144531 51.507812 325.089844 50.347656 324.972656 49.191406 C 324.859375 48.03125 324.691406 46.882812 324.460938 45.742188 C 324.234375 44.597656 323.953125 43.472656 323.617188 42.359375 C 323.277344 41.246094 322.886719 40.148438 322.441406 39.074219 C 321.996094 38 321.5 36.949219 320.953125 35.921875 C 320.40625 34.894531 319.808594 33.898438 319.164062 32.929688 C 318.515625 31.964844 317.824219 31.03125 317.085938 30.128906 C 316.347656 29.230469 315.570312 28.371094 314.746094 27.546875 C 313.925781 26.722656 313.066406 25.941406 312.167969 25.203125 C 311.269531 24.464844 310.335938 23.773438 309.367188 23.128906 C 308.402344 22.480469 307.40625 21.882812 306.378906 21.335938 C 305.355469 20.785156 304.304688 20.289062 303.230469 19.84375 C 302.15625 19.398438 301.0625 19.007812 299.949219 18.667969 C 298.839844 18.332031 297.710938 18.046875 296.570312 17.820312 C 295.429688 17.59375 294.28125 17.421875 293.125 17.308594 C 291.96875 17.195312 290.808594 17.136719 289.644531 17.136719 Z M 85.042969 17.136719 " fill-opacity="1" fill-rule="nonzero"/></g><path fill="#004aad" d="M 275.070312 196.550781 C 275.085938 196.496094 275.101562 196.441406 275.117188 196.382812 C 276.046875 192.894531 278.007812 189.769531 280.804688 187.484375 L 282.453125 186.136719 C 290.746094 179.363281 290.746094 166.691406 282.453125 159.917969 L 280.804688 158.570312 C 278.007812 156.285156 276.046875 153.160156 275.117188 149.671875 C 275.101562 149.613281 275.085938 149.558594 275.070312 149.503906 C 274.136719 146.015625 274.269531 142.332031 275.546875 138.957031 L 276.300781 136.964844 C 280.097656 126.953125 273.761719 115.976562 263.191406 114.257812 L 261.046875 113.910156 C 257.484375 113.328125 254.226562 111.601562 251.675781 109.050781 C 251.652344 109.023438 251.625 109 251.597656 108.972656 C 249.046875 106.425781 247.320312 103.164062 246.742188 99.605469 L 246.394531 97.457031 C 244.671875 86.886719 233.695312 80.550781 223.683594 84.347656 L 221.695312 85.101562 C 218.316406 86.378906 214.632812 86.515625 211.148438 85.578125 C 211.09375 85.5625 211.035156 85.546875 210.980469 85.53125 C 207.492188 84.605469 204.363281 82.640625 202.078125 79.847656 L 200.734375 78.195312 C 193.960938 69.90625 181.285156 69.90625 174.511719 78.195312 L 173.167969 79.847656 C 170.882812 82.640625 167.753906 84.605469 164.265625 85.53125 C 164.210938 85.546875 164.152344 85.5625 164.097656 85.578125 C 160.613281 86.515625 156.925781 86.378906 153.550781 85.101562 L 151.5625 84.347656 C 141.550781 80.550781 130.574219 86.886719 128.855469 97.457031 L 128.503906 99.605469 C 127.925781 103.164062 126.199219 106.425781 123.648438 108.972656 C 123.621094 109 123.59375 109.023438 123.570312 109.050781 C 121.019531 111.601562 117.757812 113.328125 114.195312 113.910156 L 112.054688 114.257812 C 101.484375 115.976562 95.148438 126.953125 98.945312 136.964844 L 99.699219 138.957031 C 100.976562 142.332031 101.109375 146.015625 100.175781 149.503906 C 100.160156 149.558594 100.144531 149.613281 100.128906 149.671875 C 99.199219 153.160156 97.238281 156.285156 94.441406 158.570312 L 92.792969 159.917969 C 84.5 166.691406 84.5 179.363281 92.792969 186.136719 L 94.441406 187.484375 C 97.238281 189.769531 99.199219 192.894531 100.128906 196.382812 C 100.144531 196.441406 100.160156 196.496094 100.175781 196.550781 C 101.109375 200.039062 100.976562 203.722656 99.699219 207.097656 L 98.945312 209.089844 C 95.148438 219.101562 101.484375 230.078125 112.054688 231.796875 L 114.195312 232.144531 C 117.757812 232.726562 121.019531 234.453125 123.570312 237.003906 C 123.59375 237.03125 123.621094 237.054688 123.648438 237.082031 C 126.199219 239.628906 127.925781 242.890625 128.503906 246.449219 L 128.855469 248.597656 C 130.574219 259.167969 141.550781 265.503906 151.5625 261.707031 L 153.550781 260.953125 C 156.925781 259.675781 160.613281 259.539062 164.097656 260.476562 C 164.152344 260.492188 164.210938 260.507812 164.265625 260.523438 C 167.753906 261.449219 170.882812 263.414062 173.167969 266.207031 L 174.511719 267.855469 C 181.285156 276.148438 193.960938 276.148438 200.734375 267.855469 L 202.078125 266.207031 C 204.363281 263.414062 207.492188 261.449219 210.980469 260.523438 C 211.035156 260.507812 211.09375 260.492188 211.148438 260.476562 C 214.632812 259.539062 218.316406 259.675781 221.695312 260.953125 L 223.683594 261.707031 C 233.695312 265.503906 244.671875 259.167969 246.394531 248.597656 L 246.742188 246.449219 C 247.320312 242.890625 249.046875 239.628906 251.597656 237.082031 C 251.625 237.054688 251.652344 237.03125 251.675781 237.003906 C 254.226562 234.453125 257.484375 232.726562 261.046875 232.144531 L 263.191406 231.796875 C 273.761719 230.078125 280.097656 219.101562 276.300781 209.089844 L 275.546875 207.097656 C 274.269531 203.722656 274.136719 200.039062 275.070312 196.550781 " fill-opacity="1" fill-rule="nonzero"/><path fill="#ffffff" d="M 259.339844 173.027344 C 259.339844 212.636719 227.230469 244.746094 187.625 244.746094 C 148.015625 244.746094 115.90625 212.636719 115.90625 173.027344 C 115.90625 133.417969 148.015625 101.308594 187.625 101.308594 C 227.230469 101.308594 259.339844 133.417969 259.339844 173.027344 " fill-opacity="1" fill-rule="nonzero"/><path fill="#004aad" d="M 215.394531 137.261719 L 175.6875 176.96875 C 175.324219 177.332031 174.730469 177.332031 174.367188 176.96875 L 153.199219 155.800781 C 152.835938 155.433594 152.242188 155.433594 151.878906 155.800781 L 134.9375 172.742188 C 134.574219 173.105469 134.574219 173.695312 134.9375 174.0625 L 156.765625 195.886719 L 174.367188 213.492188 C 174.730469 213.855469 175.324219 213.855469 175.6875 213.492188 L 233.65625 155.519531 C 234.023438 155.15625 234.023438 154.5625 233.65625 154.199219 L 216.714844 137.261719 C 216.351562 136.894531 215.757812 136.894531 215.394531 137.261719 " fill-opacity="1" fill-rule="nonzero"/><g fill="#000000" fill-opacity="1"><g transform="translate(102.967552, 327.756935)"><g><path d="M 26.9375 -29.203125 C 26.9375 -26.859375 26.222656 -24.859375 24.796875 -23.203125 C 23.378906 -21.554688 21.382812 -20.425781 18.8125 -19.8125 L 18.8125 -19.65625 C 21.84375 -19.28125 24.140625 -18.359375 25.703125 -16.890625 C 27.265625 -15.421875 28.046875 -13.445312 28.046875 -10.96875 C 28.046875 -7.34375 26.734375 -4.519531 24.109375 -2.5 C 21.484375 -0.488281 17.734375 0.515625 12.859375 0.515625 C 8.785156 0.515625 5.164062 -0.160156 2 -1.515625 L 2 -8.28125 C 3.457031 -7.550781 5.0625 -6.953125 6.8125 -6.484375 C 8.5625 -6.023438 10.296875 -5.796875 12.015625 -5.796875 C 14.640625 -5.796875 16.578125 -6.238281 17.828125 -7.125 C 19.085938 -8.019531 19.71875 -9.453125 19.71875 -11.421875 C 19.71875 -13.191406 18.992188 -14.445312 17.546875 -15.1875 C 16.109375 -15.925781 13.8125 -16.296875 10.65625 -16.296875 L 7.796875 -16.296875 L 7.796875 -22.390625 L 10.703125 -22.390625 C 13.617188 -22.390625 15.75 -22.769531 17.09375 -23.53125 C 18.445312 -24.289062 19.125 -25.597656 19.125 -27.453125 C 19.125 -30.304688 17.335938 -31.734375 13.765625 -31.734375 C 12.535156 -31.734375 11.28125 -31.523438 10 -31.109375 C 8.71875 -30.703125 7.296875 -29.988281 5.734375 -28.96875 L 2.0625 -34.453125 C 5.488281 -36.921875 9.578125 -38.15625 14.328125 -38.15625 C 18.222656 -38.15625 21.296875 -37.363281 23.546875 -35.78125 C 25.804688 -34.207031 26.9375 -32.015625 26.9375 -29.203125 Z M 26.9375 -29.203125 "/></g></g></g><g fill="#000000" fill-opacity="1"><g transform="translate(133.048849, 327.756935)"><g/></g></g><g fill="#000000" fill-opacity="1"><g transform="translate(146.73854, 327.756935)"><g><path d="M 22.390625 0 L 20.875 -3.90625 L 20.671875 -3.90625 C 19.347656 -2.25 17.984375 -1.097656 16.578125 -0.453125 C 15.179688 0.191406 13.359375 0.515625 11.109375 0.515625 C 8.347656 0.515625 6.175781 -0.269531 4.59375 -1.84375 C 3.007812 -3.425781 2.21875 -5.675781 2.21875 -8.59375 C 2.21875 -11.644531 3.285156 -13.894531 5.421875 -15.34375 C 7.554688 -16.800781 10.773438 -17.601562 15.078125 -17.75 L 20.078125 -17.90625 L 20.078125 -19.171875 C 20.078125 -22.085938 18.582031 -23.546875 15.59375 -23.546875 C 13.289062 -23.546875 10.585938 -22.851562 7.484375 -21.46875 L 4.890625 -26.765625 C 8.203125 -28.492188 11.875 -29.359375 15.90625 -29.359375 C 19.757812 -29.359375 22.71875 -28.515625 24.78125 -26.828125 C 26.84375 -25.148438 27.875 -22.597656 27.875 -19.171875 L 27.875 0 Z M 20.078125 -13.328125 L 17.03125 -13.234375 C 14.75 -13.160156 13.050781 -12.742188 11.9375 -11.984375 C 10.820312 -11.234375 10.265625 -10.085938 10.265625 -8.546875 C 10.265625 -6.328125 11.535156 -5.21875 14.078125 -5.21875 C 15.890625 -5.21875 17.34375 -5.738281 18.4375 -6.78125 C 19.53125 -7.832031 20.078125 -9.226562 20.078125 -10.96875 Z M 20.078125 -13.328125 "/></g></g></g><g fill="#000000" fill-opacity="1"><g transform="translate(178.569648, 327.756935)"><g><path d="M 30.671875 0 L 22.828125 0 L 22.828125 -16.796875 C 22.828125 -18.878906 22.457031 -20.4375 21.71875 -21.46875 C 20.976562 -22.507812 19.800781 -23.03125 18.1875 -23.03125 C 16 -23.03125 14.414062 -22.296875 13.4375 -20.828125 C 12.457031 -19.359375 11.96875 -16.925781 11.96875 -13.53125 L 11.96875 0 L 4.125 0 L 4.125 -28.765625 L 10.109375 -28.765625 L 11.171875 -25.09375 L 11.609375 -25.09375 C 12.484375 -26.476562 13.6875 -27.523438 15.21875 -28.234375 C 16.757812 -28.953125 18.503906 -29.3125 20.453125 -29.3125 C 23.804688 -29.3125 26.347656 -28.40625 28.078125 -26.59375 C 29.804688 -24.78125 30.671875 -22.171875 30.671875 -18.765625 Z M 13.078125 -34.640625 C 12.546875 -34.640625 12.035156 -34.410156 11.546875 -33.953125 C 11.054688 -33.503906 10.695312 -32.816406 10.46875 -31.890625 L 6.640625 -31.890625 C 6.828125 -34.367188 7.535156 -36.3125 8.765625 -37.71875 C 9.992188 -39.132812 11.617188 -39.84375 13.640625 -39.84375 C 14.335938 -39.84375 15.023438 -39.695312 15.703125 -39.40625 C 16.390625 -39.125 17.0625 -38.816406 17.71875 -38.484375 C 18.375 -38.148438 19.019531 -37.84375 19.65625 -37.5625 C 20.289062 -37.289062 20.921875 -37.15625 21.546875 -37.15625 C 22.078125 -37.15625 22.582031 -37.378906 23.0625 -37.828125 C 23.550781 -38.273438 23.910156 -38.960938 24.140625 -39.890625 L 27.96875 -39.890625 C 27.78125 -37.398438 27.0625 -35.453125 25.8125 -34.046875 C 24.570312 -32.640625 22.957031 -31.9375 20.96875 -31.9375 C 20.269531 -31.9375 19.582031 -32.078125 18.90625 -32.359375 C 18.226562 -32.640625 17.554688 -32.945312 16.890625 -33.28125 C 16.234375 -33.613281 15.585938 -33.921875 14.953125 -34.203125 C 14.316406 -34.492188 13.691406 -34.640625 13.078125 -34.640625 Z M 13.078125 -34.640625 "/></g></g></g><g fill="#000000" fill-opacity="1"><g transform="translate(213.205601, 327.756935)"><g><path d="M 10.375 -14.4375 C 10.375 -11.59375 10.835938 -9.441406 11.765625 -7.984375 C 12.703125 -6.523438 14.226562 -5.796875 16.34375 -5.796875 C 18.4375 -5.796875 19.941406 -6.519531 20.859375 -7.96875 C 21.773438 -9.414062 22.234375 -11.570312 22.234375 -14.4375 C 22.234375 -17.28125 21.769531 -19.414062 20.84375 -20.84375 C 19.914062 -22.269531 18.398438 -22.984375 16.296875 -22.984375 C 14.203125 -22.984375 12.691406 -22.273438 11.765625 -20.859375 C 10.835938 -19.441406 10.375 -17.300781 10.375 -14.4375 Z M 30.265625 -14.4375 C 30.265625 -9.75 29.03125 -6.082031 26.5625 -3.4375 C 24.09375 -0.800781 20.648438 0.515625 16.234375 0.515625 C 13.472656 0.515625 11.035156 -0.0859375 8.921875 -1.296875 C 6.816406 -2.503906 5.195312 -4.238281 4.0625 -6.5 C 2.9375 -8.769531 2.375 -11.414062 2.375 -14.4375 C 2.375 -19.132812 3.597656 -22.785156 6.046875 -25.390625 C 8.503906 -28.003906 11.953125 -29.3125 16.390625 -29.3125 C 19.148438 -29.3125 21.582031 -28.707031 23.6875 -27.5 C 25.800781 -26.300781 27.425781 -24.578125 28.5625 -22.328125 C 29.695312 -20.085938 30.265625 -17.457031 30.265625 -14.4375 Z M 30.265625 -14.4375 "/></g></g></g><g fill="#000000" fill-opacity="1"><g transform="translate(245.834413, 327.756935)"><g><path d="M 24.1875 -8.546875 C 24.1875 -5.597656 23.160156 -3.347656 21.109375 -1.796875 C 19.066406 -0.253906 16.003906 0.515625 11.921875 0.515625 C 9.828125 0.515625 8.039062 0.375 6.5625 0.09375 C 5.082031 -0.1875 3.703125 -0.601562 2.421875 -1.15625 L 2.421875 -7.640625 C 3.878906 -6.953125 5.519531 -6.375 7.34375 -5.90625 C 9.175781 -5.445312 10.785156 -5.21875 12.171875 -5.21875 C 15.015625 -5.21875 16.4375 -6.039062 16.4375 -7.6875 C 16.4375 -8.3125 16.25 -8.816406 15.875 -9.203125 C 15.5 -9.585938 14.847656 -10.023438 13.921875 -10.515625 C 12.992188 -11.003906 11.757812 -11.570312 10.21875 -12.21875 C 8 -13.144531 6.367188 -14.003906 5.328125 -14.796875 C 4.296875 -15.585938 3.546875 -16.492188 3.078125 -17.515625 C 2.609375 -18.535156 2.375 -19.789062 2.375 -21.28125 C 2.375 -23.832031 3.363281 -25.804688 5.34375 -27.203125 C 7.320312 -28.609375 10.128906 -29.3125 13.765625 -29.3125 C 17.234375 -29.3125 20.601562 -28.554688 23.875 -27.046875 L 21.515625 -21.390625 C 20.078125 -22.003906 18.726562 -22.507812 17.46875 -22.90625 C 16.21875 -23.300781 14.941406 -23.5 13.640625 -23.5 C 11.328125 -23.5 10.171875 -22.867188 10.171875 -21.609375 C 10.171875 -20.910156 10.539062 -20.300781 11.28125 -19.78125 C 12.03125 -19.269531 13.664062 -18.507812 16.1875 -17.5 C 18.4375 -16.59375 20.082031 -15.742188 21.125 -14.953125 C 22.175781 -14.160156 22.945312 -13.25 23.4375 -12.21875 C 23.9375 -11.1875 24.1875 -9.960938 24.1875 -8.546875 Z M 24.1875 -8.546875 "/></g></g></g><g fill="#000000" fill-opacity="1"><g transform="translate(98.686852, 372.332774)"><g><path d="M 22.109375 -12.5 C 22.109375 -8.382812 21.023438 -5.269531 18.859375 -3.15625 C 16.703125 -1.050781 13.53125 0 9.34375 0 L 3.46875 0 L 3.46875 -24.546875 L 10.109375 -24.546875 C 14.023438 -24.546875 17.003906 -23.519531 19.046875 -21.46875 C 21.085938 -19.414062 22.109375 -16.425781 22.109375 -12.5 Z M 20.25 -12.4375 C 20.25 -15.945312 19.351562 -18.585938 17.5625 -20.359375 C 15.78125 -22.140625 13.160156 -23.03125 9.703125 -23.03125 L 5.1875 -23.03125 L 5.1875 -1.515625 L 9.25 -1.515625 C 16.582031 -1.515625 20.25 -5.15625 20.25 -12.4375 Z M 20.25 -12.4375 "/></g></g><g transform="translate(122.958872, 372.332774)"><g><path d="M 10.421875 0.328125 C 7.773438 0.328125 5.707031 -0.484375 4.21875 -2.109375 C 2.738281 -3.742188 2 -6.035156 2 -8.984375 C 2 -11.890625 2.710938 -14.21875 4.140625 -15.96875 C 5.578125 -17.71875 7.507812 -18.59375 9.9375 -18.59375 C 12.082031 -18.59375 13.773438 -17.84375 15.015625 -16.34375 C 16.265625 -14.84375 16.890625 -12.804688 16.890625 -10.234375 L 16.890625 -8.890625 L 3.75 -8.890625 C 3.769531 -6.390625 4.351562 -4.476562 5.5 -3.15625 C 6.644531 -1.832031 8.285156 -1.171875 10.421875 -1.171875 C 11.460938 -1.171875 12.375 -1.242188 13.15625 -1.390625 C 13.945312 -1.535156 14.945312 -1.847656 16.15625 -2.328125 L 16.15625 -0.828125 C 15.132812 -0.378906 14.1875 -0.078125 13.3125 0.078125 C 12.4375 0.242188 11.472656 0.328125 10.421875 0.328125 Z M 9.9375 -17.125 C 8.175781 -17.125 6.765625 -16.539062 5.703125 -15.375 C 4.640625 -14.21875 4.019531 -12.550781 3.84375 -10.375 L 15.125 -10.375 C 15.125 -12.488281 14.664062 -14.140625 13.75 -15.328125 C 12.832031 -16.523438 11.5625 -17.125 9.9375 -17.125 Z M 9.9375 -17.125 "/></g></g><g transform="translate(141.82592, 372.332774)"><g/></g><g transform="translate(150.755875, 372.332774)"><g><path d="M 17.28125 -18.25 L 17.28125 -17.09375 L 13.515625 -16.859375 C 14.515625 -15.597656 15.015625 -14.21875 15.015625 -12.71875 C 15.015625 -10.96875 14.429688 -9.546875 13.265625 -8.453125 C 12.097656 -7.359375 10.53125 -6.8125 8.5625 -6.8125 C 7.726562 -6.8125 7.144531 -6.847656 6.8125 -6.921875 C 6.15625 -6.566406 5.648438 -6.15625 5.296875 -5.6875 C 4.953125 -5.21875 4.78125 -4.722656 4.78125 -4.203125 C 4.78125 -3.617188 5 -3.191406 5.4375 -2.921875 C 5.882812 -2.648438 6.628906 -2.515625 7.671875 -2.515625 L 10.859375 -2.515625 C 12.835938 -2.515625 14.351562 -2.113281 15.40625 -1.3125 C 16.457031 -0.519531 16.984375 0.660156 16.984375 2.234375 C 16.984375 4.160156 16.203125 5.644531 14.640625 6.6875 C 13.078125 7.738281 10.851562 8.265625 7.96875 8.265625 C 5.675781 8.265625 3.898438 7.820312 2.640625 6.9375 C 1.378906 6.050781 0.75 4.816406 0.75 3.234375 C 0.75 1.984375 1.140625 0.941406 1.921875 0.109375 C 2.703125 -0.710938 3.753906 -1.273438 5.078125 -1.578125 C 4.535156 -1.816406 4.097656 -2.148438 3.765625 -2.578125 C 3.429688 -3.003906 3.265625 -3.5 3.265625 -4.0625 C 3.265625 -5.28125 4.046875 -6.351562 5.609375 -7.28125 C 4.546875 -7.71875 3.71875 -8.40625 3.125 -9.34375 C 2.53125 -10.28125 2.234375 -11.351562 2.234375 -12.5625 C 2.234375 -14.382812 2.8125 -15.84375 3.96875 -16.9375 C 5.125 -18.039062 6.6875 -18.59375 8.65625 -18.59375 C 9.851562 -18.59375 10.785156 -18.476562 11.453125 -18.25 Z M 2.515625 3.09375 C 2.515625 5.59375 4.378906 6.84375 8.109375 6.84375 C 12.898438 6.84375 15.296875 5.316406 15.296875 2.265625 C 15.296875 1.171875 14.921875 0.378906 14.171875 -0.109375 C 13.421875 -0.609375 12.207031 -0.859375 10.53125 -0.859375 L 7.53125 -0.859375 C 4.1875 -0.859375 2.515625 0.457031 2.515625 3.09375 Z M 3.90625 -12.5625 C 3.90625 -11.144531 4.332031 -10.046875 5.1875 -9.265625 C 6.050781 -8.492188 7.195312 -8.109375 8.625 -8.109375 C 10.144531 -8.109375 11.3125 -8.492188 12.125 -9.265625 C 12.9375 -10.035156 13.34375 -11.15625 13.34375 -12.625 C 13.34375 -14.175781 12.925781 -15.335938 12.09375 -16.109375 C 11.257812 -16.890625 10.09375 -17.28125 8.59375 -17.28125 C 7.132812 -17.28125 5.988281 -16.863281 5.15625 -16.03125 C 4.320312 -15.195312 3.90625 -14.039062 3.90625 -12.5625 Z M 3.90625 -12.5625 "/></g></g><g transform="translate(168.733285, 372.332774)"><g><path d="M 14.125 0 L 13.71875 -2.890625 L 13.578125 -2.890625 C 12.660156 -1.710938 11.71875 -0.878906 10.75 -0.390625 C 9.78125 0.0859375 8.632812 0.328125 7.3125 0.328125 C 5.519531 0.328125 4.125 -0.128906 3.125 -1.046875 C 2.132812 -1.960938 1.640625 -3.226562 1.640625 -4.84375 C 1.640625 -6.625 2.378906 -8.003906 3.859375 -8.984375 C 5.347656 -9.972656 7.5 -10.5 10.3125 -10.5625 L 13.78125 -10.65625 L 13.78125 -11.859375 C 13.78125 -13.597656 13.425781 -14.910156 12.71875 -15.796875 C 12.019531 -16.679688 10.882812 -17.125 9.3125 -17.125 C 7.625 -17.125 5.875 -16.648438 4.0625 -15.703125 L 3.4375 -17.15625 C 5.445312 -18.09375 7.425781 -18.5625 9.375 -18.5625 C 11.382812 -18.5625 12.882812 -18.039062 13.875 -17 C 14.863281 -15.957031 15.359375 -14.335938 15.359375 -12.140625 L 15.359375 0 Z M 7.421875 -1.171875 C 9.367188 -1.171875 10.90625 -1.726562 12.03125 -2.84375 C 13.15625 -3.957031 13.71875 -5.503906 13.71875 -7.484375 L 13.71875 -9.28125 L 10.53125 -9.140625 C 7.96875 -9.023438 6.140625 -8.628906 5.046875 -7.953125 C 3.953125 -7.273438 3.40625 -6.21875 3.40625 -4.78125 C 3.40625 -3.644531 3.753906 -2.757812 4.453125 -2.125 C 5.148438 -1.488281 6.140625 -1.171875 7.421875 -1.171875 Z M 7.421875 -1.171875 "/></g></g><g transform="translate(186.945693, 372.332774)"><g><path d="M 10.234375 -18.59375 C 11.003906 -18.59375 11.832031 -18.515625 12.71875 -18.359375 L 12.40625 -16.765625 C 11.644531 -16.953125 10.851562 -17.046875 10.03125 -17.046875 C 8.476562 -17.046875 7.203125 -16.382812 6.203125 -15.0625 C 5.210938 -13.75 4.71875 -12.085938 4.71875 -10.078125 L 4.71875 0 L 3.0625 0 L 3.0625 -18.25 L 4.46875 -18.25 L 4.625 -14.953125 L 4.75 -14.953125 C 5.5 -16.296875 6.296875 -17.238281 7.140625 -17.78125 C 7.992188 -18.320312 9.023438 -18.59375 10.234375 -18.59375 Z M 10.234375 -18.59375 "/></g></g><g transform="translate(200.32384, 372.332774)"><g><path d="M 14.125 0 L 13.71875 -2.890625 L 13.578125 -2.890625 C 12.660156 -1.710938 11.71875 -0.878906 10.75 -0.390625 C 9.78125 0.0859375 8.632812 0.328125 7.3125 0.328125 C 5.519531 0.328125 4.125 -0.128906 3.125 -1.046875 C 2.132812 -1.960938 1.640625 -3.226562 1.640625 -4.84375 C 1.640625 -6.625 2.378906 -8.003906 3.859375 -8.984375 C 5.347656 -9.972656 7.5 -10.5 10.3125 -10.5625 L 13.78125 -10.65625 L 13.78125 -11.859375 C 13.78125 -13.597656 13.425781 -14.910156 12.71875 -15.796875 C 12.019531 -16.679688 10.882812 -17.125 9.3125 -17.125 C 7.625 -17.125 5.875 -16.648438 4.0625 -15.703125 L 3.4375 -17.15625 C 5.445312 -18.09375 7.425781 -18.5625 9.375 -18.5625 C 11.382812 -18.5625 12.882812 -18.039062 13.875 -17 C 14.863281 -15.957031 15.359375 -14.335938 15.359375 -12.140625 L 15.359375 0 Z M 7.421875 -1.171875 C 9.367188 -1.171875 10.90625 -1.726562 12.03125 -2.84375 C 13.15625 -3.957031 13.71875 -5.503906 13.71875 -7.484375 L 13.71875 -9.28125 L 10.53125 -9.140625 C 7.96875 -9.023438 6.140625 -8.628906 5.046875 -7.953125 C 3.953125 -7.273438 3.40625 -6.21875 3.40625 -4.78125 C 3.40625 -3.644531 3.753906 -2.757812 4.453125 -2.125 C 5.148438 -1.488281 6.140625 -1.171875 7.421875 -1.171875 Z M 7.421875 -1.171875 "/></g></g><g transform="translate(218.536248, 372.332774)"><g><path d="M 15.78125 0 L 15.78125 -11.828125 C 15.78125 -13.660156 15.394531 -14.992188 14.625 -15.828125 C 13.851562 -16.671875 12.65625 -17.09375 11.03125 -17.09375 C 8.84375 -17.09375 7.242188 -16.539062 6.234375 -15.4375 C 5.222656 -14.332031 4.71875 -12.546875 4.71875 -10.078125 L 4.71875 0 L 3.0625 0 L 3.0625 -18.25 L 4.46875 -18.25 L 4.78125 -15.75 L 4.890625 -15.75 C 6.066406 -17.644531 8.175781 -18.59375 11.21875 -18.59375 C 15.351562 -18.59375 17.421875 -16.375 17.421875 -11.9375 L 17.421875 0 Z M 15.78125 0 "/></g></g><g transform="translate(238.813289, 372.332774)"><g><path d="M 7.875 -1.140625 C 8.925781 -1.140625 9.84375 -1.226562 10.625 -1.40625 L 10.625 -0.0625 C 9.820312 0.195312 8.894531 0.328125 7.84375 0.328125 C 6.226562 0.328125 5.035156 -0.0976562 4.265625 -0.953125 C 3.503906 -1.816406 3.125 -3.171875 3.125 -5.015625 L 3.125 -16.796875 L 0.421875 -16.796875 L 0.421875 -17.78125 L 3.125 -18.53125 L 3.96875 -22.65625 L 4.8125 -22.65625 L 4.8125 -18.25 L 10.171875 -18.25 L 10.171875 -16.796875 L 4.8125 -16.796875 L 4.8125 -5.25 C 4.8125 -3.851562 5.054688 -2.816406 5.546875 -2.140625 C 6.046875 -1.472656 6.820312 -1.140625 7.875 -1.140625 Z M 7.875 -1.140625 "/></g></g><g transform="translate(250.328231, 372.332774)"><g><path d="M 4.71875 0 L 3.0625 0 L 3.0625 -18.25 L 4.71875 -18.25 Z M 1.796875 -21.09375 C 2.617188 -21.976562 3.425781 -22.9375 4.21875 -23.96875 C 5.019531 -25.007812 5.566406 -25.796875 5.859375 -26.328125 L 8.234375 -26.328125 L 8.234375 -26.046875 C 7.828125 -25.460938 7.140625 -24.691406 6.171875 -23.734375 C 5.203125 -22.773438 4.132812 -21.804688 2.96875 -20.828125 L 1.796875 -20.828125 Z M 1.796875 -21.09375 "/></g></g><g transform="translate(258.099977, 372.332774)"><g><path d="M 14.125 0 L 13.71875 -2.890625 L 13.578125 -2.890625 C 12.660156 -1.710938 11.71875 -0.878906 10.75 -0.390625 C 9.78125 0.0859375 8.632812 0.328125 7.3125 0.328125 C 5.519531 0.328125 4.125 -0.128906 3.125 -1.046875 C 2.132812 -1.960938 1.640625 -3.226562 1.640625 -4.84375 C 1.640625 -6.625 2.378906 -8.003906 3.859375 -8.984375 C 5.347656 -9.972656 7.5 -10.5 10.3125 -10.5625 L 13.78125 -10.65625 L 13.78125 -11.859375 C 13.78125 -13.597656 13.425781 -14.910156 12.71875 -15.796875 C 12.019531 -16.679688 10.882812 -17.125 9.3125 -17.125 C 7.625 -17.125 5.875 -16.648438 4.0625 -15.703125 L 3.4375 -17.15625 C 5.445312 -18.09375 7.425781 -18.5625 9.375 -18.5625 C 11.382812 -18.5625 12.882812 -18.039062 13.875 -17 C 14.863281 -15.957031 15.359375 -14.335938 15.359375 -12.140625 L 15.359375 0 Z M 7.421875 -1.171875 C 9.367188 -1.171875 10.90625 -1.726562 12.03125 -2.84375 C 13.15625 -3.957031 13.71875 -5.503906 13.71875 -7.484375 L 13.71875 -9.28125 L 10.53125 -9.140625 C 7.96875 -9.023438 6.140625 -8.628906 5.046875 -7.953125 C 3.953125 -7.273438 3.40625 -6.21875 3.40625 -4.78125 C 3.40625 -3.644531 3.753906 -2.757812 4.453125 -2.125 C 5.148438 -1.488281 6.140625 -1.171875 7.421875 -1.171875 Z M 7.421875 -1.171875 "/></g></g></g></svg>