<svg xmlns="http://www.w3.org/2000/svg" xmlns:xlink="http://www.w3.org/1999/xlink" width="500" zoomAndPan="magnify" viewBox="0 0 375 187.499995" height="250" preserveAspectRatio="xMidYMid meet" version="1.0"><defs><g/></defs><g fill="#000000" fill-opacity="1"><g transform="translate(26.886755, 120.282659)"><g><path d="M 40.5625 -1.046875 C 43.957031 -1.046875 46.125 -1.664062 47.0625 -2.90625 C 48 -4.15625 48.46875 -6.269531 48.46875 -9.25 L 48.46875 -29.4375 L 41.8125 -29.4375 L 41.8125 -31.71875 L 71.765625 -31.71875 L 71.765625 -29.4375 L 67.703125 -29.4375 L 67.703125 -0.109375 L 66.140625 -0.109375 C 64.890625 -1.835938 63.125 -2.703125 60.84375 -2.703125 C 59.875 -2.703125 56.976562 -2.078125 52.15625 -0.828125 C 47.332031 0.421875 43.222656 1.046875 39.828125 1.046875 C 28.523438 1.046875 19.769531 -2.003906 13.5625 -8.109375 C 7.363281 -14.210938 4.265625 -23.378906 4.265625 -35.609375 C 4.265625 -47.847656 7.503906 -57.296875 13.984375 -63.953125 C 20.472656 -70.609375 29.191406 -73.9375 40.140625 -73.9375 C 44.367188 -73.9375 48.613281 -73.398438 52.875 -72.328125 C 57.144531 -71.253906 59.625 -70.71875 60.3125 -70.71875 C 61.007812 -70.71875 61.53125 -70.875 61.875 -71.1875 C 62.226562 -71.5 62.613281 -72.035156 63.03125 -72.796875 L 64.171875 -72.796875 L 65 -50.234375 L 63.125 -50.234375 C 59.726562 -56.953125 56.3125 -62.234375 52.875 -66.078125 C 49.445312 -69.929688 45.617188 -71.859375 41.390625 -71.859375 C 30.785156 -71.859375 25.484375 -61.492188 25.484375 -40.765625 L 25.484375 -32.546875 C 25.484375 -22.148438 26.78125 -14.300781 29.375 -9 C 31.976562 -3.695312 35.707031 -1.046875 40.5625 -1.046875 Z M 40.5625 -1.046875 "/></g></g></g><g fill="#000000" fill-opacity="1"><g transform="translate(102.08255, 120.282659)"><g><path d="M 2.59375 -72.796875 L 34.3125 -72.796875 L 34.3125 -70.828125 L 28.59375 -70.828125 L 28.59375 -1.96875 L 34.3125 -1.96875 L 34.3125 0 L 2.59375 0 L 2.59375 -1.96875 L 8.3125 -1.96875 L 8.3125 -70.828125 L 2.59375 -70.828125 Z M 2.59375 -72.796875 "/></g></g></g><g fill="#000000" fill-opacity="1"><g transform="translate(139.004412, 120.282659)"><g><path d="M 2.1875 -72.796875 L 56.265625 -72.796875 L 57.296875 -52.203125 L 55.4375 -52.203125 C 52.519531 -59.210938 49.46875 -64.015625 46.28125 -66.609375 C 43.09375 -69.210938 38.410156 -70.515625 32.234375 -70.515625 L 28.59375 -70.515625 L 28.59375 -38.375 L 32.140625 -38.375 C 35.398438 -38.375 38.140625 -39.601562 40.359375 -42.0625 C 42.578125 -44.53125 44.132812 -47.84375 45.03125 -52 L 46.59375 -52 L 46.59375 -21.21875 L 44.828125 -21.21875 C 43.578125 -26.414062 41.894531 -30.125 39.78125 -32.34375 C 37.664062 -34.5625 34.769531 -35.671875 31.09375 -35.671875 L 28.59375 -35.671875 L 28.59375 -2.28125 L 32.546875 -2.28125 C 38.929688 -2.28125 44.359375 -4.1875 48.828125 -8 C 53.296875 -11.820312 56.363281 -16.710938 58.03125 -22.671875 L 60.109375 -22.671875 L 59.28125 0 L 2.1875 0 L 2.1875 -2.28125 L 8.3125 -2.28125 L 8.3125 -70.515625 L 2.1875 -70.515625 Z M 2.1875 -72.796875 "/></g></g></g><g fill="#000000" fill-opacity="1"><g transform="translate(203.903687, 120.282659)"><g><path d="M 66.140625 -72.796875 L 67.1875 -46.703125 L 65.203125 -46.703125 C 62.148438 -55.921875 59.445312 -62.207031 57.09375 -65.5625 C 54.738281 -68.925781 51.34375 -70.609375 46.90625 -70.609375 L 45.65625 -70.609375 L 45.65625 -2.1875 L 54.5 -2.1875 L 54.5 0 L 16.53125 0 L 16.53125 -2.1875 L 25.375 -2.1875 L 25.375 -70.609375 L 24.03125 -70.609375 C 19.59375 -70.609375 16.160156 -68.859375 13.734375 -65.359375 C 11.304688 -61.859375 8.632812 -55.640625 5.71875 -46.703125 L 3.75 -46.703125 L 4.78125 -72.796875 Z M 66.140625 -72.796875 "/></g></g></g><g fill="#000000" fill-opacity="1"><g transform="translate(274.939268, 120.282659)"><g><path d="M 41.59375 -71.859375 C 30.851562 -71.859375 25.484375 -61.492188 25.484375 -40.765625 L 25.484375 -32.546875 C 25.484375 -22.703125 26.90625 -14.988281 29.75 -9.40625 C 32.59375 -3.832031 36.785156 -1.046875 42.328125 -1.046875 C 49.953125 -1.046875 56.957031 -8.460938 63.34375 -23.296875 L 65.203125 -23.296875 L 64.484375 -0.109375 L 63.34375 -0.109375 C 62.925781 -0.867188 62.539062 -1.40625 62.1875 -1.71875 C 61.84375 -2.03125 61.34375 -2.1875 60.6875 -2.1875 C 60.03125 -2.1875 57.515625 -1.644531 53.140625 -0.5625 C 48.773438 0.507812 44.335938 1.046875 39.828125 1.046875 C 28.523438 1.046875 19.769531 -2.003906 13.5625 -8.109375 C 7.363281 -14.210938 4.265625 -23.378906 4.265625 -35.609375 C 4.265625 -47.847656 7.503906 -57.296875 13.984375 -63.953125 C 20.472656 -70.609375 29.191406 -73.9375 40.140625 -73.9375 C 44.367188 -73.9375 48.507812 -73.398438 52.5625 -72.328125 C 56.625 -71.253906 59 -70.71875 59.6875 -70.71875 C 60.382812 -70.71875 60.90625 -70.875 61.25 -71.1875 C 61.601562 -71.5 61.988281 -72.035156 62.40625 -72.796875 L 63.546875 -72.796875 L 64.375 -50.234375 L 62.5 -50.234375 C 59.382812 -57.234375 56.175781 -62.585938 52.875 -66.296875 C 49.582031 -70.003906 45.820312 -71.859375 41.59375 -71.859375 Z M 41.59375 -71.859375 "/></g></g></g><g fill="#000000" fill-opacity="1"><g transform="translate(30.339797, 155.67946)"><g><path d="M 12.078125 -13.296875 L 12.28125 -8.53125 L 11.90625 -8.53125 C 11.351562 -10.21875 10.859375 -11.367188 10.421875 -11.984375 C 9.992188 -12.597656 9.375 -12.90625 8.5625 -12.90625 L 8.34375 -12.90625 L 8.34375 -0.40625 L 9.953125 -0.40625 L 9.953125 0 L 3.015625 0 L 3.015625 -0.40625 L 4.640625 -0.40625 L 4.640625 -12.90625 L 4.390625 -12.90625 C 3.578125 -12.90625 2.945312 -12.582031 2.5 -11.9375 C 2.0625 -11.300781 1.578125 -10.164062 1.046875 -8.53125 L 0.6875 -8.53125 L 0.875 -13.296875 Z M 12.078125 -13.296875 "/></g></g></g><g fill="#000000" fill-opacity="1"><g transform="translate(47.296586, 155.67946)"><g><path d="M 6.234375 -6.71875 L 5.21875 -6.71875 L 5.21875 -0.359375 L 6.453125 -0.359375 L 6.453125 0 L 0.28125 0 L 0.28125 -0.359375 L 1.515625 -0.359375 L 1.515625 -12.9375 L 0.28125 -12.9375 L 0.28125 -13.296875 L 6.015625 -13.296875 C 7.671875 -13.296875 8.84375 -13.207031 9.53125 -13.03125 C 10.21875 -12.863281 10.703125 -12.660156 10.984375 -12.421875 C 11.585938 -11.929688 11.890625 -11.144531 11.890625 -10.0625 C 11.890625 -8.988281 11.625 -8.21875 11.09375 -7.75 C 10.5625 -7.289062 9.75 -7.019531 8.65625 -6.9375 L 8.65625 -6.875 C 9.6875 -6.738281 10.40625 -6.4375 10.8125 -5.96875 C 11.21875 -5.5 11.421875 -4.710938 11.421875 -3.609375 L 11.421875 -2.609375 C 11.421875 -1.941406 11.453125 -1.492188 11.515625 -1.265625 C 11.585938 -1.046875 11.738281 -0.9375 11.96875 -0.9375 C 12.195312 -0.9375 12.378906 -1.039062 12.515625 -1.25 C 12.648438 -1.457031 12.769531 -1.894531 12.875 -2.5625 L 13.203125 -2.53125 C 13.066406 -1.445312 12.820312 -0.722656 12.46875 -0.359375 C 12.125 0.00390625 11.429688 0.1875 10.390625 0.1875 C 9.347656 0.1875 8.609375 -0.0507812 8.171875 -0.53125 C 7.742188 -1.019531 7.53125 -1.9375 7.53125 -3.28125 L 7.53125 -4.671875 C 7.53125 -5.378906 7.4375 -5.894531 7.25 -6.21875 C 7.0625 -6.550781 6.722656 -6.71875 6.234375 -6.71875 Z M 5.21875 -12.9375 L 5.21875 -7.09375 L 5.828125 -7.09375 C 6.554688 -7.09375 7.09375 -7.3125 7.4375 -7.75 C 7.789062 -8.195312 7.96875 -8.921875 7.96875 -9.921875 L 7.96875 -10.46875 C 7.96875 -11.46875 7.796875 -12.128906 7.453125 -12.453125 C 7.117188 -12.773438 6.585938 -12.9375 5.859375 -12.9375 Z M 5.21875 -12.9375 "/></g></g></g><g fill="#000000" fill-opacity="1"><g transform="translate(64.87987, 155.67946)"><g><path d="M 8.203125 -0.359375 L 6.828125 -4.46875 L 3.0625 -4.46875 L 1.59375 -0.359375 L 3.015625 -0.359375 L 3.015625 0 L 0.109375 0 L 0.109375 -0.359375 L 1 -0.359375 L 5.859375 -13.40625 L 7.40625 -13.40625 L 12.203125 -0.359375 L 13.078125 -0.359375 L 13.078125 0 L 6.859375 0 L 6.859375 -0.359375 Z M 5.015625 -9.859375 L 3.234375 -4.890625 L 6.671875 -4.890625 Z M 5.015625 -9.859375 "/></g></g></g><g fill="#000000" fill-opacity="1"><g transform="translate(82.045487, 155.67946)"><g><path d="M 11.203125 -12.9375 L 11.203125 0 L 8.546875 0 L 2.03125 -12.296875 L 2.03125 -0.359375 L 3.078125 -0.359375 L 3.078125 0 L 0.46875 0 L 0.46875 -0.359375 L 1.515625 -0.359375 L 1.515625 -12.9375 L 0.46875 -12.9375 L 0.46875 -13.296875 L 5.71875 -13.296875 L 10.703125 -3.765625 L 10.703125 -12.9375 L 9.65625 -12.9375 L 9.65625 -13.296875 L 12.25 -13.296875 L 12.25 -12.9375 Z M 11.203125 -12.9375 "/></g></g></g><g fill="#000000" fill-opacity="1"><g transform="translate(98.755483, 155.67946)"><g><path d="M 6.171875 -0.203125 C 6.804688 -0.203125 7.367188 -0.375 7.859375 -0.71875 C 8.347656 -1.0625 8.59375 -1.578125 8.59375 -2.265625 C 8.59375 -2.960938 8.328125 -3.492188 7.796875 -3.859375 C 7.273438 -4.222656 6.53125 -4.539062 5.5625 -4.8125 C 4.59375 -5.082031 3.890625 -5.316406 3.453125 -5.515625 C 3.015625 -5.722656 2.597656 -5.992188 2.203125 -6.328125 C 1.421875 -6.984375 1.03125 -8.003906 1.03125 -9.390625 C 1.03125 -10.515625 1.429688 -11.484375 2.234375 -12.296875 C 3.035156 -13.109375 4.132812 -13.515625 5.53125 -13.515625 C 6.195312 -13.515625 6.894531 -13.414062 7.625 -13.21875 C 8.351562 -13.019531 8.804688 -12.921875 8.984375 -12.921875 C 9.160156 -12.921875 9.320312 -13.046875 9.46875 -13.296875 L 9.671875 -13.296875 L 9.796875 -9.46875 L 9.5 -9.46875 C 8.894531 -10.5625 8.257812 -11.441406 7.59375 -12.109375 C 6.925781 -12.773438 6.203125 -13.109375 5.421875 -13.109375 C 4.640625 -13.109375 4.035156 -12.925781 3.609375 -12.5625 C 3.179688 -12.207031 2.96875 -11.726562 2.96875 -11.125 C 2.96875 -10.519531 3.222656 -10.054688 3.734375 -9.734375 C 4.242188 -9.410156 4.875 -9.144531 5.625 -8.9375 C 6.375 -8.738281 6.863281 -8.601562 7.09375 -8.53125 C 7.332031 -8.457031 7.625 -8.351562 7.96875 -8.21875 C 8.320312 -8.082031 8.609375 -7.941406 8.828125 -7.796875 C 9.046875 -7.648438 9.28125 -7.46875 9.53125 -7.25 C 9.78125 -7.03125 9.972656 -6.785156 10.109375 -6.515625 C 10.453125 -5.910156 10.625 -5.1875 10.625 -4.34375 C 10.625 -2.976562 10.195312 -1.878906 9.34375 -1.046875 C 8.488281 -0.222656 7.363281 0.1875 5.96875 0.1875 C 5.25 0.1875 4.421875 0.09375 3.484375 -0.09375 C 2.554688 -0.28125 2.039062 -0.375 1.9375 -0.375 C 1.757812 -0.375 1.585938 -0.1875 1.421875 0.1875 L 1.15625 0.1875 L 0.96875 -4.328125 L 1.296875 -4.328125 C 1.847656 -3.222656 2.554688 -2.257812 3.421875 -1.4375 C 4.296875 -0.613281 5.210938 -0.203125 6.171875 -0.203125 Z M 6.171875 -0.203125 "/></g></g></g><g fill="#000000" fill-opacity="1"><g transform="translate(114.136562, 155.67946)"><g><path d="M 0.28125 -13.296875 L 5.875 -13.296875 C 7.78125 -13.296875 9.203125 -13.019531 10.140625 -12.46875 C 11.078125 -11.914062 11.546875 -10.929688 11.546875 -9.515625 C 11.546875 -7.941406 10.976562 -6.859375 9.84375 -6.265625 C 8.78125 -5.722656 7.289062 -5.453125 5.375 -5.453125 L 5.21875 -5.453125 L 5.21875 -0.359375 L 7.59375 -0.359375 L 7.59375 0 L 0.28125 0 L 0.28125 -0.359375 L 1.515625 -0.359375 L 1.515625 -12.9375 L 0.28125 -12.9375 Z M 5.21875 -12.9375 L 5.21875 -5.8125 L 5.625 -5.8125 C 6.382812 -5.8125 6.910156 -6.070312 7.203125 -6.59375 C 7.492188 -7.113281 7.640625 -7.957031 7.640625 -9.125 L 7.640625 -10.03125 C 7.640625 -11.101562 7.503906 -11.851562 7.234375 -12.28125 C 6.960938 -12.71875 6.460938 -12.9375 5.734375 -12.9375 Z M 5.21875 -12.9375 "/></g></g></g><g fill="#000000" fill-opacity="1"><g transform="translate(130.163117, 155.67946)"><g><path d="M 9.515625 -5.875 L 9.515625 -7.28125 C 9.515625 -9.59375 9.398438 -11.054688 9.171875 -11.671875 C 8.921875 -12.367188 8.5625 -12.796875 8.09375 -12.953125 C 7.820312 -13.054688 7.5 -13.109375 7.125 -13.109375 C 6.75 -13.109375 6.421875 -13.054688 6.140625 -12.953125 C 5.867188 -12.859375 5.644531 -12.679688 5.46875 -12.421875 C 5.289062 -12.171875 5.148438 -11.90625 5.046875 -11.625 C 4.941406 -11.34375 4.851562 -10.953125 4.78125 -10.453125 C 4.707031 -9.710938 4.671875 -8.628906 4.671875 -7.203125 L 4.671875 -5.828125 C 4.671875 -4.285156 4.726562 -3.1875 4.84375 -2.53125 C 4.96875 -1.882812 5.117188 -1.421875 5.296875 -1.140625 C 5.691406 -0.515625 6.300781 -0.203125 7.125 -0.203125 C 8.125 -0.203125 8.769531 -0.625 9.0625 -1.46875 C 9.363281 -2.3125 9.515625 -3.78125 9.515625 -5.875 Z M 7.078125 0.1875 C 4.960938 0.1875 3.382812 -0.382812 2.34375 -1.53125 C 1.300781 -2.675781 0.78125 -4.332031 0.78125 -6.5 C 0.78125 -8.675781 1.335938 -10.390625 2.453125 -11.640625 C 3.578125 -12.890625 5.164062 -13.515625 7.21875 -13.515625 C 9.269531 -13.515625 10.816406 -12.921875 11.859375 -11.734375 C 12.910156 -10.546875 13.4375 -8.863281 13.4375 -6.6875 C 13.4375 -4.507812 12.90625 -2.816406 11.84375 -1.609375 C 10.789062 -0.410156 9.203125 0.1875 7.078125 0.1875 Z M 7.078125 0.1875 "/></g></g></g><g fill="#000000" fill-opacity="1"><g transform="translate(148.353914, 155.67946)"><g><path d="M 6.234375 -6.71875 L 5.21875 -6.71875 L 5.21875 -0.359375 L 6.453125 -0.359375 L 6.453125 0 L 0.28125 0 L 0.28125 -0.359375 L 1.515625 -0.359375 L 1.515625 -12.9375 L 0.28125 -12.9375 L 0.28125 -13.296875 L 6.015625 -13.296875 C 7.671875 -13.296875 8.84375 -13.207031 9.53125 -13.03125 C 10.21875 -12.863281 10.703125 -12.660156 10.984375 -12.421875 C 11.585938 -11.929688 11.890625 -11.144531 11.890625 -10.0625 C 11.890625 -8.988281 11.625 -8.21875 11.09375 -7.75 C 10.5625 -7.289062 9.75 -7.019531 8.65625 -6.9375 L 8.65625 -6.875 C 9.6875 -6.738281 10.40625 -6.4375 10.8125 -5.96875 C 11.21875 -5.5 11.421875 -4.710938 11.421875 -3.609375 L 11.421875 -2.609375 C 11.421875 -1.941406 11.453125 -1.492188 11.515625 -1.265625 C 11.585938 -1.046875 11.738281 -0.9375 11.96875 -0.9375 C 12.195312 -0.9375 12.378906 -1.039062 12.515625 -1.25 C 12.648438 -1.457031 12.769531 -1.894531 12.875 -2.5625 L 13.203125 -2.53125 C 13.066406 -1.445312 12.820312 -0.722656 12.46875 -0.359375 C 12.125 0.00390625 11.429688 0.1875 10.390625 0.1875 C 9.347656 0.1875 8.609375 -0.0507812 8.171875 -0.53125 C 7.742188 -1.019531 7.53125 -1.9375 7.53125 -3.28125 L 7.53125 -4.671875 C 7.53125 -5.378906 7.4375 -5.894531 7.25 -6.21875 C 7.0625 -6.550781 6.722656 -6.71875 6.234375 -6.71875 Z M 5.21875 -12.9375 L 5.21875 -7.09375 L 5.828125 -7.09375 C 6.554688 -7.09375 7.09375 -7.3125 7.4375 -7.75 C 7.789062 -8.195312 7.96875 -8.921875 7.96875 -9.921875 L 7.96875 -10.46875 C 7.96875 -11.46875 7.796875 -12.128906 7.453125 -12.453125 C 7.117188 -12.773438 6.585938 -12.9375 5.859375 -12.9375 Z M 5.21875 -12.9375 "/></g></g></g><g fill="#000000" fill-opacity="1"><g transform="translate(165.9372, 155.67946)"><g><path d="M 12.078125 -13.296875 L 12.28125 -8.53125 L 11.90625 -8.53125 C 11.351562 -10.21875 10.859375 -11.367188 10.421875 -11.984375 C 9.992188 -12.597656 9.375 -12.90625 8.5625 -12.90625 L 8.34375 -12.90625 L 8.34375 -0.40625 L 9.953125 -0.40625 L 9.953125 0 L 3.015625 0 L 3.015625 -0.40625 L 4.640625 -0.40625 L 4.640625 -12.90625 L 4.390625 -12.90625 C 3.578125 -12.90625 2.945312 -12.582031 2.5 -11.9375 C 2.0625 -11.300781 1.578125 -10.164062 1.046875 -8.53125 L 0.6875 -8.53125 L 0.875 -13.296875 Z M 12.078125 -13.296875 "/></g></g></g><g fill="#000000" fill-opacity="1"><g transform="translate(182.893993, 155.67946)"><g><path d="M 0.40625 -13.296875 L 10.28125 -13.296875 L 10.46875 -9.53125 L 10.125 -9.53125 C 9.59375 -10.8125 9.035156 -11.6875 8.453125 -12.15625 C 7.867188 -12.632812 7.015625 -12.875 5.890625 -12.875 L 5.21875 -12.875 L 5.21875 -7.015625 L 5.875 -7.015625 C 6.46875 -7.015625 6.96875 -7.238281 7.375 -7.6875 C 7.78125 -8.132812 8.066406 -8.738281 8.234375 -9.5 L 8.515625 -9.5 L 8.515625 -3.875 L 8.1875 -3.875 C 7.957031 -4.820312 7.648438 -5.5 7.265625 -5.90625 C 6.878906 -6.3125 6.351562 -6.515625 5.6875 -6.515625 L 5.21875 -6.515625 L 5.21875 -0.421875 L 5.953125 -0.421875 C 7.109375 -0.421875 8.09375 -0.769531 8.90625 -1.46875 C 9.726562 -2.164062 10.296875 -3.054688 10.609375 -4.140625 L 10.984375 -4.140625 L 10.828125 0 L 0.40625 0 L 0.40625 -0.421875 L 1.515625 -0.421875 L 1.515625 -12.875 L 0.40625 -12.875 Z M 0.40625 -13.296875 "/></g></g></g><g fill="#000000" fill-opacity="1"><g transform="translate(198.730699, 155.67946)"><g/></g></g><g fill="#000000" fill-opacity="1"><g transform="translate(206.138274, 155.67946)"><g><path d="M 0.28125 -13.296875 L 5.875 -13.296875 C 7.78125 -13.296875 9.203125 -13.019531 10.140625 -12.46875 C 11.078125 -11.914062 11.546875 -10.929688 11.546875 -9.515625 C 11.546875 -7.941406 10.976562 -6.859375 9.84375 -6.265625 C 8.78125 -5.722656 7.289062 -5.453125 5.375 -5.453125 L 5.21875 -5.453125 L 5.21875 -0.359375 L 7.59375 -0.359375 L 7.59375 0 L 0.28125 0 L 0.28125 -0.359375 L 1.515625 -0.359375 L 1.515625 -12.9375 L 0.28125 -12.9375 Z M 5.21875 -12.9375 L 5.21875 -5.8125 L 5.625 -5.8125 C 6.382812 -5.8125 6.910156 -6.070312 7.203125 -6.59375 C 7.492188 -7.113281 7.640625 -7.957031 7.640625 -9.125 L 7.640625 -10.03125 C 7.640625 -11.101562 7.503906 -11.851562 7.234375 -12.28125 C 6.960938 -12.71875 6.460938 -12.9375 5.734375 -12.9375 Z M 5.21875 -12.9375 "/></g></g></g><g fill="#000000" fill-opacity="1"><g transform="translate(222.164829, 155.67946)"><g><path d="M 9.515625 -5.875 L 9.515625 -7.28125 C 9.515625 -9.59375 9.398438 -11.054688 9.171875 -11.671875 C 8.921875 -12.367188 8.5625 -12.796875 8.09375 -12.953125 C 7.820312 -13.054688 7.5 -13.109375 7.125 -13.109375 C 6.75 -13.109375 6.421875 -13.054688 6.140625 -12.953125 C 5.867188 -12.859375 5.644531 -12.679688 5.46875 -12.421875 C 5.289062 -12.171875 5.148438 -11.90625 5.046875 -11.625 C 4.941406 -11.34375 4.851562 -10.953125 4.78125 -10.453125 C 4.707031 -9.710938 4.671875 -8.628906 4.671875 -7.203125 L 4.671875 -5.828125 C 4.671875 -4.285156 4.726562 -3.1875 4.84375 -2.53125 C 4.96875 -1.882812 5.117188 -1.421875 5.296875 -1.140625 C 5.691406 -0.515625 6.300781 -0.203125 7.125 -0.203125 C 8.125 -0.203125 8.769531 -0.625 9.0625 -1.46875 C 9.363281 -2.3125 9.515625 -3.78125 9.515625 -5.875 Z M 7.078125 0.1875 C 4.960938 0.1875 3.382812 -0.382812 2.34375 -1.53125 C 1.300781 -2.675781 0.78125 -4.332031 0.78125 -6.5 C 0.78125 -8.675781 1.335938 -10.390625 2.453125 -11.640625 C 3.578125 -12.890625 5.164062 -13.515625 7.21875 -13.515625 C 9.269531 -13.515625 10.816406 -12.921875 11.859375 -11.734375 C 12.910156 -10.546875 13.4375 -8.863281 13.4375 -6.6875 C 13.4375 -4.507812 12.90625 -2.816406 11.84375 -1.609375 C 10.789062 -0.410156 9.203125 0.1875 7.078125 0.1875 Z M 7.078125 0.1875 "/></g></g></g><g fill="#000000" fill-opacity="1"><g transform="translate(240.355614, 155.67946)"><g><path d="M 6.234375 -6.71875 L 5.21875 -6.71875 L 5.21875 -0.359375 L 6.453125 -0.359375 L 6.453125 0 L 0.28125 0 L 0.28125 -0.359375 L 1.515625 -0.359375 L 1.515625 -12.9375 L 0.28125 -12.9375 L 0.28125 -13.296875 L 6.015625 -13.296875 C 7.671875 -13.296875 8.84375 -13.207031 9.53125 -13.03125 C 10.21875 -12.863281 10.703125 -12.660156 10.984375 -12.421875 C 11.585938 -11.929688 11.890625 -11.144531 11.890625 -10.0625 C 11.890625 -8.988281 11.625 -8.21875 11.09375 -7.75 C 10.5625 -7.289062 9.75 -7.019531 8.65625 -6.9375 L 8.65625 -6.875 C 9.6875 -6.738281 10.40625 -6.4375 10.8125 -5.96875 C 11.21875 -5.5 11.421875 -4.710938 11.421875 -3.609375 L 11.421875 -2.609375 C 11.421875 -1.941406 11.453125 -1.492188 11.515625 -1.265625 C 11.585938 -1.046875 11.738281 -0.9375 11.96875 -0.9375 C 12.195312 -0.9375 12.378906 -1.039062 12.515625 -1.25 C 12.648438 -1.457031 12.769531 -1.894531 12.875 -2.5625 L 13.203125 -2.53125 C 13.066406 -1.445312 12.820312 -0.722656 12.46875 -0.359375 C 12.125 0.00390625 11.429688 0.1875 10.390625 0.1875 C 9.347656 0.1875 8.609375 -0.0507812 8.171875 -0.53125 C 7.742188 -1.019531 7.53125 -1.9375 7.53125 -3.28125 L 7.53125 -4.671875 C 7.53125 -5.378906 7.4375 -5.894531 7.25 -6.21875 C 7.0625 -6.550781 6.722656 -6.71875 6.234375 -6.71875 Z M 5.21875 -12.9375 L 5.21875 -7.09375 L 5.828125 -7.09375 C 6.554688 -7.09375 7.09375 -7.3125 7.4375 -7.75 C 7.789062 -8.195312 7.96875 -8.921875 7.96875 -9.921875 L 7.96875 -10.46875 C 7.96875 -11.46875 7.796875 -12.128906 7.453125 -12.453125 C 7.117188 -12.773438 6.585938 -12.9375 5.859375 -12.9375 Z M 5.21875 -12.9375 "/></g></g></g><g fill="#000000" fill-opacity="1"><g transform="translate(257.9389, 155.67946)"><g/></g></g><g fill="#000000" fill-opacity="1"><g transform="translate(265.346474, 155.67946)"><g><path d="M 7.59375 -13.125 C 5.632812 -13.125 4.65625 -11.234375 4.65625 -7.453125 L 4.65625 -5.953125 C 4.65625 -4.148438 4.914062 -2.738281 5.4375 -1.71875 C 5.957031 -0.695312 6.722656 -0.1875 7.734375 -0.1875 C 9.128906 -0.1875 10.410156 -1.539062 11.578125 -4.25 L 11.90625 -4.25 L 11.78125 -0.015625 L 11.578125 -0.015625 C 11.492188 -0.160156 11.421875 -0.257812 11.359375 -0.3125 C 11.296875 -0.375 11.203125 -0.40625 11.078125 -0.40625 C 10.960938 -0.40625 10.503906 -0.304688 9.703125 -0.109375 C 8.910156 0.0859375 8.101562 0.1875 7.28125 0.1875 C 5.21875 0.1875 3.617188 -0.367188 2.484375 -1.484375 C 1.347656 -2.597656 0.78125 -4.269531 0.78125 -6.5 C 0.78125 -8.738281 1.367188 -10.46875 2.546875 -11.6875 C 3.734375 -12.90625 5.328125 -13.515625 7.328125 -13.515625 C 8.109375 -13.515625 8.867188 -13.414062 9.609375 -13.21875 C 10.347656 -13.019531 10.78125 -12.921875 10.90625 -12.921875 C 11.03125 -12.921875 11.125 -12.945312 11.1875 -13 C 11.25 -13.0625 11.320312 -13.160156 11.40625 -13.296875 L 11.609375 -13.296875 L 11.765625 -9.171875 L 11.421875 -9.171875 C 10.847656 -10.453125 10.257812 -11.429688 9.65625 -12.109375 C 9.0625 -12.785156 8.375 -13.125 7.59375 -13.125 Z M 7.59375 -13.125 "/></g></g></g><g fill="#000000" fill-opacity="1"><g transform="translate(282.436168, 155.67946)"><g><path d="M 8.203125 -0.359375 L 6.828125 -4.46875 L 3.0625 -4.46875 L 1.59375 -0.359375 L 3.015625 -0.359375 L 3.015625 0 L 0.109375 0 L 0.109375 -0.359375 L 1 -0.359375 L 5.859375 -13.40625 L 7.40625 -13.40625 L 12.203125 -0.359375 L 13.078125 -0.359375 L 13.078125 0 L 6.859375 0 L 6.859375 -0.359375 Z M 5.015625 -9.859375 L 3.234375 -4.890625 L 6.671875 -4.890625 Z M 5.015625 -9.859375 "/></g></g></g><g fill="#000000" fill-opacity="1"><g transform="translate(299.601792, 155.67946)"><g><path d="M 0.40625 -13.296875 L 6.078125 -13.296875 C 7.835938 -13.296875 9.15625 -13.054688 10.03125 -12.578125 C 10.914062 -12.109375 11.359375 -11.3125 11.359375 -10.1875 C 11.359375 -8.445312 10.316406 -7.40625 8.234375 -7.0625 L 8.234375 -7.03125 C 10.765625 -6.71875 12.03125 -5.613281 12.03125 -3.71875 C 12.03125 -2.34375 11.507812 -1.378906 10.46875 -0.828125 C 9.425781 -0.273438 7.929688 0 5.984375 0 L 0.40625 0 L 0.40625 -0.359375 L 1.640625 -0.359375 L 1.640625 -12.9375 L 0.40625 -12.9375 Z M 5.34375 -6.71875 L 5.34375 -0.359375 L 6.234375 -0.359375 C 6.929688 -0.359375 7.414062 -0.597656 7.6875 -1.078125 C 7.96875 -1.566406 8.109375 -2.28125 8.109375 -3.21875 L 8.109375 -4.21875 C 8.109375 -5.050781 7.9375 -5.675781 7.59375 -6.09375 C 7.257812 -6.507812 6.65625 -6.71875 5.78125 -6.71875 Z M 5.34375 -12.9375 L 5.34375 -7.09375 L 5.828125 -7.09375 C 6.492188 -7.09375 6.953125 -7.289062 7.203125 -7.6875 C 7.460938 -8.082031 7.59375 -8.691406 7.59375 -9.515625 L 7.59375 -10.40625 C 7.59375 -11.34375 7.476562 -12 7.25 -12.375 C 7.03125 -12.75 6.597656 -12.9375 5.953125 -12.9375 Z M 5.34375 -12.9375 "/></g></g></g><g fill="#000000" fill-opacity="1"><g transform="translate(316.102945, 155.67946)"><g><path d="M 0.40625 -13.296875 L 7.234375 -13.296875 L 7.234375 -12.875 L 5.21875 -12.875 L 5.21875 -0.421875 L 5.90625 -0.421875 C 6.988281 -0.421875 7.847656 -0.75 8.484375 -1.40625 C 9.117188 -2.0625 9.769531 -3.078125 10.4375 -4.453125 L 10.828125 -4.453125 L 10.46875 0 L 0.40625 0 L 0.40625 -0.421875 L 1.515625 -0.421875 L 1.515625 -12.875 L 0.40625 -12.875 Z M 0.40625 -13.296875 "/></g></g></g><g fill="#000000" fill-opacity="1"><g transform="translate(331.408069, 155.67946)"><g><path d="M 0.40625 -13.296875 L 10.28125 -13.296875 L 10.46875 -9.53125 L 10.125 -9.53125 C 9.59375 -10.8125 9.035156 -11.6875 8.453125 -12.15625 C 7.867188 -12.632812 7.015625 -12.875 5.890625 -12.875 L 5.21875 -12.875 L 5.21875 -7.015625 L 5.875 -7.015625 C 6.46875 -7.015625 6.96875 -7.238281 7.375 -7.6875 C 7.78125 -8.132812 8.066406 -8.738281 8.234375 -9.5 L 8.515625 -9.5 L 8.515625 -3.875 L 8.1875 -3.875 C 7.957031 -4.820312 7.648438 -5.5 7.265625 -5.90625 C 6.878906 -6.3125 6.351562 -6.515625 5.6875 -6.515625 L 5.21875 -6.515625 L 5.21875 -0.421875 L 5.953125 -0.421875 C 7.109375 -0.421875 8.09375 -0.769531 8.90625 -1.46875 C 9.726562 -2.164062 10.296875 -3.054688 10.609375 -4.140625 L 10.984375 -4.140625 L 10.828125 0 L 0.40625 0 L 0.40625 -0.421875 L 1.515625 -0.421875 L 1.515625 -12.875 L 0.40625 -12.875 Z M 0.40625 -13.296875 "/></g></g></g></svg>