<svg xmlns="http://www.w3.org/2000/svg" xmlns:xlink="http://www.w3.org/1999/xlink" width="500" zoomAndPan="magnify" viewBox="0 0 375 374.999991" height="500" preserveAspectRatio="xMidYMid meet" version="1.0"><defs><clipPath id="eba4f7548b"><path d="M 154 12.988281 L 241 12.988281 L 241 57 L 154 57 Z M 154 12.988281 " clip-rule="nonzero"/></clipPath></defs><path fill="#311514" d="M 240.691406 161.214844 C 240.421875 150.761719 240.148438 140.402344 239.875 129.949219 C 239.421875 111.957031 238.96875 93.960938 238.511719 75.96875 C 238.332031 68.152344 238.875 60.246094 237.332031 52.429688 C 233.0625 29.890625 211.992188 22.347656 193.914062 22.347656 C 185.105469 22.347656 175.75 23.527344 168.210938 28.890625 C 159.308594 35.253906 156.492188 46.703125 155.949219 57.882812 C 155.492188 66.425781 155.492188 74.96875 155.222656 83.417969 C 154.765625 98.503906 154.402344 113.589844 153.949219 128.585938 C 153.949219 128.679688 153.949219 128.859375 153.949219 128.949219 C 153.949219 128.949219 153.3125 149.671875 153.3125 149.671875 C 153.3125 149.671875 240.691406 161.214844 240.691406 161.214844 Z M 240.691406 161.214844 " fill-opacity="1" fill-rule="nonzero"/><path fill="#f8ab94" d="M 181.015625 115.589844 C 180.652344 116.773438 180.925781 153.851562 180.925781 153.851562 L 210.175781 154.035156 L 210.355469 103.320312 Z M 181.015625 115.589844 " fill-opacity="1" fill-rule="nonzero"/><path fill="#311514" d="M 179.925781 128.949219 L 205.269531 110.59375 L 179.925781 111.59375 Z M 179.925781 128.949219 " fill-opacity="1" fill-rule="nonzero"/><path fill="#f8ab94" d="M 172.84375 39.886719 C 166.667969 41.523438 162.398438 46.613281 160.398438 52.519531 C 159.21875 55.972656 159.398438 59.335938 159.582031 62.972656 C 159.671875 65.878906 159.761719 68.878906 159.945312 71.785156 C 160.125 77.601562 160.398438 83.328125 160.582031 89.144531 C 160.582031 90.234375 160.671875 91.324219 160.671875 92.417969 C 160.761719 94.6875 161.488281 97.050781 162.304688 99.140625 C 167.484375 112.957031 184.46875 118.589844 197.910156 114.589844 C 207.175781 111.773438 214.988281 104.230469 217.894531 94.960938 C 218.167969 94.234375 218.347656 93.507812 218.4375 92.6875 C 218.4375 92.507812 218.621094 92.417969 218.804688 92.507812 C 226.523438 97.324219 234.335938 90.597656 235.605469 82.691406 C 236.0625 80.148438 235.878906 77.785156 235.152344 75.785156 C 234.0625 72.878906 231.792969 70.785156 228.066406 69.695312 C 225.613281 68.96875 222.980469 68.878906 220.621094 69.789062 C 219.4375 70.242188 218.167969 70.878906 217.347656 71.878906 C 216.351562 73.148438 215.441406 74.785156 215.261719 75.238281 C 215.261719 75.332031 215.167969 75.332031 215.078125 75.332031 L 214.898438 75.332031 C 214.804688 75.511719 174.839844 57.882812 172.84375 39.886719 " fill-opacity="1" fill-rule="nonzero"/><path fill="#311514" d="M 194.1875 80.601562 C 194.1875 80.964844 194.117188 81.3125 193.980469 81.644531 C 193.84375 81.980469 193.644531 82.273438 193.390625 82.53125 C 193.132812 82.785156 192.839844 82.984375 192.503906 83.121094 C 192.171875 83.257812 191.824219 83.328125 191.460938 83.328125 C 191.101562 83.328125 190.753906 83.257812 190.421875 83.121094 C 190.085938 82.984375 189.792969 82.785156 189.535156 82.53125 C 189.28125 82.273438 189.082031 81.980469 188.945312 81.644531 C 188.808594 81.3125 188.738281 80.964844 188.738281 80.601562 C 188.738281 80.242188 188.808594 79.894531 188.945312 79.558594 C 189.082031 79.226562 189.28125 78.929688 189.535156 78.675781 C 189.792969 78.417969 190.085938 78.222656 190.421875 78.082031 C 190.753906 77.945312 191.101562 77.875 191.460938 77.875 C 191.824219 77.875 192.171875 77.945312 192.503906 78.082031 C 192.839844 78.222656 193.132812 78.417969 193.390625 78.675781 C 193.644531 78.929688 193.84375 79.226562 193.980469 79.558594 C 194.117188 79.894531 194.1875 80.242188 194.1875 80.601562 Z M 194.1875 80.601562 " fill-opacity="1" fill-rule="nonzero"/><path fill="#311514" d="M 170.664062 80.601562 C 170.664062 80.964844 170.59375 81.3125 170.457031 81.644531 C 170.316406 81.980469 170.121094 82.273438 169.863281 82.53125 C 169.609375 82.785156 169.3125 82.984375 168.980469 83.121094 C 168.648438 83.257812 168.300781 83.328125 167.9375 83.328125 C 167.578125 83.328125 167.230469 83.257812 166.894531 83.121094 C 166.5625 82.984375 166.265625 82.785156 166.011719 82.53125 C 165.753906 82.273438 165.558594 81.980469 165.421875 81.644531 C 165.28125 81.3125 165.210938 80.964844 165.210938 80.601562 C 165.210938 80.242188 165.28125 79.894531 165.421875 79.558594 C 165.558594 79.226562 165.753906 78.929688 166.011719 78.675781 C 166.265625 78.417969 166.5625 78.222656 166.894531 78.082031 C 167.230469 77.945312 167.578125 77.875 167.9375 77.875 C 168.300781 77.875 168.648438 77.945312 168.980469 78.082031 C 169.3125 78.222656 169.609375 78.417969 169.863281 78.675781 C 170.121094 78.929688 170.316406 79.226562 170.457031 79.558594 C 170.59375 79.894531 170.664062 80.242188 170.664062 80.601562 Z M 170.664062 80.601562 " fill-opacity="1" fill-rule="nonzero"/><path fill="#311514" d="M 174.839844 90.691406 C 174.476562 90.691406 174.023438 90.597656 173.660156 90.597656 C 173.570312 90.597656 173.296875 90.597656 173.113281 90.597656 C 173.113281 90.507812 173.207031 90.417969 173.207031 90.328125 C 173.296875 90.054688 173.296875 89.78125 173.386719 89.507812 C 173.476562 88.964844 173.660156 88.417969 173.75 87.964844 C 174.023438 86.871094 174.296875 85.875 174.566406 84.78125 C 174.75 83.964844 173.476562 83.601562 173.296875 84.417969 C 172.84375 86.144531 172.480469 87.871094 172.023438 89.507812 C 171.84375 90.144531 171.296875 91.417969 172.296875 91.691406 C 172.660156 91.78125 173.113281 91.78125 173.570312 91.871094 L 174.839844 92.054688 C 175.203125 92.054688 175.476562 91.691406 175.476562 91.417969 C 175.476562 90.960938 175.203125 90.691406 174.839844 90.691406 Z M 174.839844 90.691406 " fill-opacity="1" fill-rule="nonzero"/><path fill="#311514" d="M 159.855469 71.695312 C 159.855469 71.695312 159.761719 71.695312 159.855469 71.695312 C 159.582031 71.878906 159.398438 72.148438 159.308594 72.421875 C 159.308594 72.695312 159.492188 72.96875 159.761719 73.148438 C 160.582031 73.695312 161.941406 73.785156 162.851562 73.875 C 164.03125 74.058594 165.210938 74.058594 166.394531 74.058594 C 168.121094 74.058594 169.84375 73.875 171.480469 73.242188 C 171.753906 73.148438 171.933594 73.058594 172.207031 72.878906 C 172.660156 72.421875 172.480469 71.785156 171.933594 71.515625 C 170.300781 70.605469 167.757812 70.605469 166.03125 70.605469 C 164.03125 70.515625 161.578125 70.695312 159.855469 71.695312 Z M 159.855469 71.695312 " fill-opacity="1" fill-rule="nonzero"/><path fill="#311514" d="M 186.738281 71.421875 C 186.375 71.605469 186.195312 71.785156 186.195312 72.058594 C 186.195312 72.332031 186.375 72.695312 186.648438 72.878906 C 187.464844 73.511719 188.828125 73.695312 189.828125 73.875 C 191.007812 74.148438 192.28125 74.242188 193.550781 74.242188 C 195.367188 74.332031 197.183594 74.332031 198.910156 73.785156 C 199.183594 73.695312 199.457031 73.605469 199.636719 73.421875 C 200.183594 72.96875 200 72.332031 199.457031 71.96875 C 197.820312 70.96875 195.1875 70.695312 193.28125 70.605469 C 191.191406 70.421875 188.648438 70.421875 186.738281 71.421875 Z M 186.738281 71.421875 " fill-opacity="1" fill-rule="nonzero"/><path fill="#311514" d="M 227.433594 73.511719 C 225.34375 74.695312 223.890625 76.695312 222.800781 78.785156 C 221.617188 81.328125 220.710938 84.054688 220.074219 86.78125 C 219.894531 87.507812 220.4375 87.871094 220.984375 87.871094 C 220.984375 87.871094 221.074219 87.871094 221.074219 87.871094 L 221.347656 87.871094 C 221.527344 87.871094 221.800781 87.78125 221.980469 87.601562 C 223.34375 86.238281 224.523438 84.691406 225.433594 83.054688 C 225.886719 82.238281 226.25 81.328125 226.160156 80.328125 C 226.070312 79.511719 225.707031 78.785156 225.070312 78.421875 C 225.886719 77.058594 226.886719 75.875 228.339844 75.058594 C 229.429688 74.511719 228.523438 72.878906 227.433594 73.511719 Z M 227.433594 73.511719 " fill-opacity="1" fill-rule="nonzero"/><path fill="#7e2777" d="M 168.390625 142.128906 L 180.925781 136.128906 L 190.554688 152.125 L 210.355469 135.949219 L 222.800781 144.128906 L 192.554688 223.828125 L 175.929688 220.46875 C 175.929688 220.375 165.394531 145.671875 168.390625 142.128906 Z M 168.390625 142.128906 " fill-opacity="1" fill-rule="nonzero"/><path fill="#f5a0b5" d="M 311.539062 294.625 C 311.175781 291.71875 310.449219 288.808594 309.90625 285.808594 C 305.453125 263.636719 299.371094 241.734375 294.101562 219.738281 C 293.285156 216.195312 292.375 212.652344 291.558594 209.105469 C 287.832031 193.75 281.023438 175.753906 268.851562 165.03125 C 261.855469 158.757812 251.773438 156.304688 243.234375 152.671875 C 237.058594 150.035156 230.792969 147.398438 224.617188 144.765625 L 222.800781 143.945312 L 195.097656 200.019531 C 195.097656 200.019531 187.558594 369.964844 187.011719 369.785156 C 187.011719 369.601562 259.496094 368.875 259.496094 368.875 L 246.234375 292.261719 C 246.234375 292.261719 282.476562 313.890625 282.476562 313.890625 C 289.195312 316.253906 297.644531 317.890625 304 313.710938 C 308.089844 311.074219 310.359375 306.53125 311.359375 301.894531 C 311.8125 299.535156 311.8125 297.078125 311.539062 294.625 Z M 245.6875 264 L 256.859375 219.105469 C 257.132812 217.921875 258.769531 217.832031 259.222656 218.921875 L 280.566406 274.996094 C 280.929688 275.996094 280.023438 276.902344 279.023438 276.539062 Z M 245.6875 264 " fill-opacity="1" fill-rule="nonzero"/><path fill="#f5a0b5" d="M 168.390625 142.128906 L 138.054688 154.941406 C 138.054688 154.941406 124.613281 157.667969 120.613281 177.84375 L 184.015625 212.015625 Z M 168.390625 142.128906 " fill-opacity="1" fill-rule="nonzero"/><path fill="#a6a6a6" d="M 220.4375 197.929688 C 220.4375 197.929688 205.632812 326.070312 224.433594 371.417969 C 224.433594 371.417969 103.628906 375.238281 64.390625 337.792969 C 64.390625 337.792969 37.6875 204.019531 64.390625 115.863281 C 64.390625 115.863281 90.550781 190.023438 220.4375 197.929688 Z M 220.4375 197.929688 " fill-opacity="1" fill-rule="nonzero"/><path fill="#f8ab94" d="M 53.582031 174.480469 L 63.574219 187.023438 C 63.574219 187.023438 65.117188 190.566406 61.9375 191.386719 L 57.941406 189.476562 L 61.484375 193.019531 C 61.484375 193.019531 64.300781 195.929688 60.9375 199.019531 C 60.9375 199.019531 63.484375 203.472656 59.847656 205.199219 L 57.667969 205.199219 L 59.941406 207.925781 C 59.941406 207.925781 61.394531 211.378906 58.214844 212.015625 L 48.496094 208.289062 C 48.496094 208.289062 46.226562 205.382812 48.496094 201.835938 C 48.496094 201.835938 43.226562 197.019531 48.132812 192.113281 C 48.132812 192.113281 45.5 186.386719 49.949219 183.480469 C 49.949219 183.480469 45.40625 178.207031 49.585938 175.207031 C 49.765625 175.117188 51.402344 173.753906 53.582031 174.480469 Z M 53.582031 174.480469 " fill-opacity="1" fill-rule="nonzero"/><g clip-path="url(#eba4f7548b)"><path fill="#a6a6a6" d="M 154.859375 56.246094 L 240.238281 56.246094 L 240.238281 51.703125 C 240.238281 30.34375 222.800781 12.988281 201.183594 12.988281 L 195.730469 12.988281 C 173.113281 12.988281 154.859375 31.164062 154.859375 53.519531 Z M 154.859375 56.246094 " fill-opacity="1" fill-rule="nonzero"/></g><path fill="#a6a6a6" d="M 240.238281 55.609375 L 240.058594 66.699219 L 153.585938 66.699219 C 151.042969 66.699219 149.589844 63.425781 151.132812 61.152344 L 155.039062 55.609375 Z M 240.238281 55.609375 " fill-opacity="1" fill-rule="nonzero"/><path fill="#311514" d="M 184.742188 16.714844 C 179.925781 24.890625 176.566406 33.796875 174.75 43.070312 C 174.203125 45.703125 173.839844 48.25 173.570312 50.882812 C 173.476562 51.519531 174.476562 51.519531 174.566406 50.882812 C 175.566406 41.613281 178.019531 32.527344 182.015625 24.074219 C 183.105469 21.710938 184.378906 19.4375 185.648438 17.167969 C 185.921875 16.714844 185.105469 16.167969 184.742188 16.714844 Z M 184.742188 16.714844 " fill-opacity="1" fill-rule="nonzero"/><path fill="#311514" d="M 200.636719 14.167969 C 196.277344 23.527344 193.1875 33.433594 191.460938 43.523438 C 191.007812 46.339844 190.554688 49.25 190.28125 52.066406 C 190.191406 52.703125 191.191406 52.703125 191.28125 52.066406 C 192.28125 41.976562 194.550781 32.070312 198.183594 22.53125 C 199.183594 19.804688 200.273438 17.167969 201.546875 14.53125 C 201.726562 14.078125 200.910156 13.625 200.636719 14.167969 Z M 200.636719 14.167969 " fill-opacity="1" fill-rule="nonzero"/><path fill="#311514" d="M 237.421875 55.15625 L 157.21875 55.15625 C 156.582031 55.15625 156.582031 56.15625 157.21875 56.15625 L 237.421875 56.15625 C 238.058594 56.0625 238.058594 55.15625 237.421875 55.15625 Z M 237.421875 55.15625 " fill-opacity="1" fill-rule="nonzero"/><path fill="#311514" d="M 209.265625 170.027344 C 203.179688 163.941406 197.003906 157.851562 190.828125 151.941406 C 190.554688 151.671875 190.191406 151.941406 190.28125 152.214844 C 190.191406 152.214844 190.101562 152.214844 190.101562 152.308594 C 184.921875 156.761719 179.5625 161.03125 174.113281 165.03125 C 173.75 165.304688 174.113281 165.9375 174.476562 165.667969 C 180.019531 161.578125 185.378906 157.304688 190.554688 152.851562 C 190.554688 152.851562 190.554688 152.761719 190.644531 152.761719 C 196.820312 158.578125 202.90625 164.574219 208.8125 170.574219 C 209.082031 170.847656 209.628906 170.300781 209.265625 170.027344 Z M 209.265625 170.027344 " fill-opacity="1" fill-rule="nonzero"/><path fill="#f5a0b5" d="M 182.742188 159.304688 L 186.195312 170.574219 L 181.472656 193.203125 L 196.09375 195.566406 L 191.644531 170.574219 L 197.457031 159.304688 L 190.554688 152.671875 Z M 182.742188 159.304688 " fill-opacity="1" fill-rule="nonzero"/><path fill="#311514" d="M 186.648438 170.9375 C 188.191406 170.9375 189.738281 170.9375 191.28125 170.9375 C 191.734375 170.9375 191.734375 170.210938 191.28125 170.210938 C 189.738281 170.210938 188.191406 170.210938 186.648438 170.210938 C 186.195312 170.210938 186.195312 170.9375 186.648438 170.9375 Z M 186.648438 170.9375 " fill-opacity="1" fill-rule="nonzero"/><path fill="#311514" d="M 51.039062 184.84375 C 53.039062 186.113281 55.035156 187.386719 57.035156 188.566406 C 57.398438 188.839844 57.761719 188.203125 57.398438 187.933594 C 55.398438 186.660156 53.402344 185.386719 51.402344 184.207031 C 51.039062 183.933594 50.675781 184.570312 51.039062 184.84375 Z M 51.039062 184.84375 " fill-opacity="1" fill-rule="nonzero"/><path fill="#311514" d="M 49.859375 193.113281 C 53.128906 194.839844 56.308594 196.65625 59.578125 198.382812 C 59.941406 198.566406 60.304688 198.019531 59.941406 197.746094 C 56.671875 196.019531 53.492188 194.203125 50.222656 192.476562 C 49.859375 192.292969 49.496094 192.929688 49.859375 193.113281 Z M 49.859375 193.113281 " fill-opacity="1" fill-rule="nonzero"/><path fill="#311514" d="M 49.949219 202.199219 C 52.402344 203.109375 54.761719 204.019531 57.214844 205.015625 C 57.667969 205.199219 57.851562 204.472656 57.398438 204.289062 C 55.035156 203.289062 52.582031 202.382812 50.128906 201.472656 C 49.675781 201.382812 49.496094 202.019531 49.949219 202.199219 Z M 49.949219 202.199219 " fill-opacity="1" fill-rule="nonzero"/><path fill="#311514" d="M 222.34375 280.628906 C 229.15625 284.355469 236.425781 287.445312 243.417969 290.898438 C 245.144531 291.71875 246.871094 292.625 248.503906 293.535156 C 248.867188 293.71875 249.230469 293.171875 248.867188 292.898438 C 242.054688 289.171875 234.789062 286.082031 227.796875 282.628906 C 226.070312 281.8125 224.34375 280.902344 222.707031 279.992188 C 222.253906 279.8125 221.890625 280.359375 222.34375 280.628906 Z M 222.34375 280.628906 " fill-opacity="1" fill-rule="nonzero"/><path fill="#311514" d="M 230.066406 257.363281 C 236.425781 260.183594 242.78125 263.089844 249.140625 266 C 249.59375 266.179688 249.957031 265.542969 249.503906 265.363281 C 243.234375 262.363281 236.878906 259.546875 230.429688 256.730469 C 230.066406 256.636719 229.703125 257.183594 230.066406 257.363281 Z M 230.066406 257.363281 " fill-opacity="1" fill-rule="nonzero"/><path fill="#311514" d="M 229.792969 256.910156 C 227.523438 264.726562 224.617188 272.359375 222.164062 280.175781 C 222.074219 280.628906 222.707031 280.8125 222.890625 280.359375 C 225.34375 272.542969 228.25 264.90625 230.519531 257.09375 C 230.609375 256.636719 229.882812 256.457031 229.792969 256.910156 Z M 229.792969 256.910156 " fill-opacity="1" fill-rule="nonzero"/><path fill="#311514" d="M 188.828125 91.960938 C 187.285156 95.050781 184.195312 96.960938 181.109375 98.234375 C 180.746094 98.414062 180.472656 98.6875 180.652344 99.140625 C 180.746094 99.503906 181.199219 99.777344 181.5625 99.597656 C 185.015625 98.140625 188.464844 96.144531 190.191406 92.6875 C 190.464844 91.871094 189.191406 91.144531 188.828125 91.960938 Z M 188.828125 91.960938 " fill-opacity="1" fill-rule="nonzero"/><path fill="#f8ab94" d="M 229.15625 258.636719 L 222.800781 249.003906 L 216.714844 242.097656 L 216.351562 248.820312 L 203.726562 242.097656 L 194.007812 236.734375 L 188.285156 232.734375 C 188.285156 232.734375 184.015625 233.828125 186.46875 237.097656 L 193.1875 243.734375 L 196.914062 246.824219 L 182.289062 237.824219 C 182.289062 237.824219 178.929688 237.460938 179.382812 241.371094 C 179.382812 241.371094 175.296875 242.007812 176.75 246.460938 L 183.378906 254.367188 L 185.648438 256.457031 L 178.292969 251.640625 C 178.292969 251.640625 174.660156 251.546875 176.386719 255 L 188.464844 266.542969 C 188.464844 266.542969 205.542969 275.359375 208.8125 275.90625 C 212.082031 276.359375 222.890625 278.085938 222.890625 278.085938 L 229.15625 259.363281 " fill-opacity="1" fill-rule="nonzero"/><path fill="#311514" d="M 199.636719 254.820312 C 192.460938 251.003906 185.832031 246.277344 179.835938 240.824219 C 179.472656 240.550781 179.019531 241.007812 179.292969 241.371094 C 185.378906 246.824219 192.007812 251.640625 199.183594 255.457031 C 199.726562 255.636719 200.089844 255.09375 199.636719 254.820312 Z M 199.636719 254.820312 " fill-opacity="1" fill-rule="nonzero"/><path fill="#311514" d="M 202.363281 249.09375 C 200.816406 248.367188 199.273438 247.550781 197.820312 246.730469 C 197.457031 246.460938 197.09375 247.09375 197.457031 247.367188 C 198.910156 248.1875 200.453125 249.003906 202 249.730469 C 202.453125 249.914062 202.816406 249.277344 202.363281 249.09375 Z M 202.363281 249.09375 " fill-opacity="1" fill-rule="nonzero"/><path fill="#311514" d="M 194.824219 261.816406 C 191.824219 260.273438 188.917969 258.457031 186.105469 256.363281 C 185.742188 256.09375 185.378906 256.730469 185.742188 257 C 188.464844 259 191.371094 260.816406 194.460938 262.453125 C 194.914062 262.636719 195.277344 262 194.824219 261.816406 Z M 194.824219 261.816406 " fill-opacity="1" fill-rule="nonzero"/><path fill="#311514" d="M 219.257812 272.269531 C 218.257812 272.542969 217.347656 272.722656 216.351562 272.996094 C 216.167969 272.996094 216.078125 273.269531 216.078125 273.449219 C 216.167969 273.632812 216.351562 273.722656 216.53125 273.722656 C 217.53125 273.449219 218.4375 273.269531 219.4375 272.996094 C 219.621094 272.996094 219.710938 272.722656 219.710938 272.542969 C 219.710938 272.359375 219.4375 272.269531 219.257812 272.269531 Z M 219.257812 272.269531 " fill-opacity="1" fill-rule="nonzero"/><path fill="#311514" d="M 260.039062 220.195312 C 258.3125 216.558594 256.679688 212.925781 254.953125 209.289062 C 254.773438 208.835938 254.136719 209.199219 254.316406 209.652344 C 256.042969 213.289062 257.679688 216.921875 259.402344 220.558594 C 259.585938 220.921875 260.222656 220.558594 260.039062 220.195312 Z M 260.039062 220.195312 " fill-opacity="1" fill-rule="nonzero"/><path fill="#311514" d="M 294.101562 282.992188 C 290.285156 280.449219 286.199219 278.449219 281.929688 276.8125 C 281.476562 276.632812 281.292969 277.359375 281.75 277.539062 C 285.925781 279.085938 290.015625 281.175781 293.738281 283.628906 C 294.191406 283.902344 294.464844 283.265625 294.101562 282.992188 Z M 294.101562 282.992188 " fill-opacity="1" fill-rule="nonzero"/><path fill="#311514" d="M 247.597656 308.984375 C 237.605469 310.074219 227.523438 309.710938 217.621094 307.804688 C 217.167969 307.710938 216.984375 308.441406 217.441406 308.53125 C 227.339844 310.4375 237.515625 310.894531 247.597656 309.804688 C 248.050781 309.621094 248.050781 308.894531 247.597656 308.984375 Z M 247.597656 308.984375 " fill-opacity="1" fill-rule="nonzero"/><path fill="#f5a0b5" d="M 232.425781 91.234375 C 231.882812 90.507812 230.882812 91.507812 231.429688 92.234375 C 232.609375 93.6875 233.152344 95.777344 232.699219 97.6875 C 232.246094 99.503906 230.972656 101.050781 229.25 101.867188 C 225.796875 103.503906 221.4375 101.230469 220.984375 97.414062 C 220.710938 95.324219 221.617188 93.234375 223.34375 91.960938 C 224.070312 91.417969 223.34375 90.234375 222.617188 90.691406 C 220.710938 92.054688 219.621094 94.234375 219.53125 96.507812 C 219.53125 98.867188 220.710938 100.960938 222.527344 102.324219 C 226.433594 105.230469 232.335938 103.320312 233.878906 98.6875 C 234.789062 96.234375 234.152344 93.324219 232.425781 91.234375 Z M 232.425781 91.234375 " fill-opacity="1" fill-rule="nonzero"/></svg>