<svg xmlns="http://www.w3.org/2000/svg" xmlns:xlink="http://www.w3.org/1999/xlink" width="500" zoomAndPan="magnify" viewBox="0 0 375 374.999991" height="500" preserveAspectRatio="xMidYMid meet" version="1.0"><path fill="#221410" d="M 182.511719 129.523438 C 182.242188 132.886719 181.605469 136.253906 180.695312 139.4375 C 179.695312 142.890625 178.242188 146.257812 177.515625 149.804688 C 176.789062 153.351562 176.789062 157.171875 178.515625 160.355469 C 180.332031 163.71875 183.785156 165.902344 187.511719 166.628906 C 191.234375 167.355469 195.140625 166.71875 198.59375 165.355469 C 201.320312 164.265625 203.953125 162.71875 206.042969 160.535156 C 210.675781 155.535156 211.402344 148.167969 210.859375 141.4375 C 210.496094 137.164062 209.675781 132.707031 206.769531 129.523438 C 204.226562 126.703125 200.5 125.25 196.777344 124.886719 C 193.050781 124.429688 189.234375 124.976562 185.511719 125.429688 C 183.875 127.160156 184.148438 127.796875 182.511719 129.523438 Z M 182.511719 129.523438 " fill-opacity="1" fill-rule="nonzero"/><path fill="#221410" d="M 167.613281 71.136719 C 170.15625 63.316406 176.789062 57.496094 183.875 53.492188 C 192.871094 48.492188 203.410156 45.761719 213.675781 46.855469 C 223.941406 47.855469 234.027344 52.675781 240.566406 60.679688 C 247.5625 69.226562 250.289062 80.414062 251.832031 91.328125 C 252.742188 97.601562 255.738281 102.148438 259.011719 107.695312 C 262.28125 113.152344 265.277344 119.335938 264.371094 125.613281 C 263.28125 133.433594 256.464844 139.074219 250.199219 143.894531 C 253.105469 145.800781 255.648438 148.710938 256.011719 152.167969 C 256.464844 156.808594 251.921875 161.355469 247.199219 160.808594 C 240.113281 168.355469 228.664062 172.265625 218.492188 170.175781 C 208.40625 168.082031 199.59375 160.535156 195.960938 150.804688 C 193.414062 143.894531 193.414062 136.34375 194.050781 128.976562 C 194.597656 122.976562 195.503906 116.882812 193.871094 111.0625 C 192.777344 107.242188 190.597656 103.785156 188.507812 100.421875 C 187.054688 98.054688 185.511719 95.691406 183.785156 93.507812 C 181.96875 91.234375 179.878906 89.144531 177.878906 86.960938 C 174.335938 82.6875 170.15625 76.140625 167.613281 71.136719 Z M 167.613281 71.136719 " fill-opacity="1" fill-rule="nonzero"/><path fill="#c55e4b" d="M 167.523438 70.589844 C 167.523438 70.589844 155.984375 92.234375 165.160156 117.609375 C 174.335938 142.984375 195.140625 136.433594 195.140625 136.433594 C 195.140625 136.433594 223.394531 116.609375 223.394531 116.609375 C 223.667969 116.425781 226.304688 117.519531 226.667969 117.609375 C 231.480469 118.792969 236.480469 118.609375 240.292969 114.882812 C 248.109375 107.332031 244.019531 91.871094 233.117188 89.960938 C 227.210938 88.960938 220.671875 91.691406 218.308594 97.328125 C 218.308594 97.328125 202.953125 85.507812 202.226562 64.769531 C 202.226562 64.863281 179.789062 64.953125 167.523438 70.589844 Z M 167.523438 70.589844 " fill-opacity="1" fill-rule="nonzero"/><path fill="#c55e4b" d="M 223.128906 182.253906 L 187.421875 182.253906 L 187.421875 114.226562 L 223.128906 114.226562 Z M 223.128906 182.253906 " fill-opacity="1" fill-rule="nonzero"/><path fill="#221410" d="M 193.507812 95.511719 C 193.507812 95.957031 193.421875 96.386719 193.25 96.796875 C 193.078125 97.210938 192.835938 97.574219 192.519531 97.890625 C 192.207031 98.203125 191.84375 98.449219 191.429688 98.617188 C 191.019531 98.789062 190.589844 98.875 190.144531 98.875 C 189.699219 98.875 189.269531 98.789062 188.859375 98.617188 C 188.445312 98.449219 188.082031 98.203125 187.769531 97.890625 C 187.453125 97.574219 187.210938 97.210938 187.039062 96.796875 C 186.867188 96.386719 186.78125 95.957031 186.78125 95.511719 C 186.78125 95.0625 186.867188 94.632812 187.039062 94.222656 C 187.210938 93.808594 187.453125 93.445312 187.769531 93.128906 C 188.082031 92.816406 188.445312 92.570312 188.859375 92.402344 C 189.269531 92.230469 189.699219 92.144531 190.144531 92.144531 C 190.589844 92.144531 191.019531 92.230469 191.429688 92.402344 C 191.84375 92.570312 192.207031 92.816406 192.519531 93.128906 C 192.835938 93.445312 193.078125 93.808594 193.25 94.222656 C 193.421875 94.632812 193.507812 95.0625 193.507812 95.511719 Z M 193.507812 95.511719 " fill-opacity="1" fill-rule="nonzero"/><path fill="#221410" d="M 171.609375 97.054688 C 171.609375 97.503906 171.527344 97.933594 171.355469 98.34375 C 171.183594 98.757812 170.941406 99.121094 170.625 99.4375 C 170.3125 99.75 169.949219 99.996094 169.535156 100.164062 C 169.125 100.335938 168.695312 100.421875 168.25 100.421875 C 167.804688 100.421875 167.375 100.335938 166.960938 100.164062 C 166.550781 99.996094 166.1875 99.75 165.871094 99.4375 C 165.558594 99.121094 165.3125 98.757812 165.144531 98.34375 C 164.972656 97.933594 164.886719 97.503906 164.886719 97.054688 C 164.886719 96.609375 164.972656 96.179688 165.144531 95.769531 C 165.3125 95.355469 165.558594 94.992188 165.871094 94.675781 C 166.1875 94.359375 166.550781 94.117188 166.960938 93.949219 C 167.375 93.777344 167.804688 93.691406 168.25 93.691406 C 168.695312 93.691406 169.125 93.777344 169.535156 93.949219 C 169.949219 94.117188 170.3125 94.359375 170.625 94.675781 C 170.941406 94.992188 171.183594 95.355469 171.355469 95.769531 C 171.527344 96.179688 171.609375 96.609375 171.609375 97.054688 Z M 171.609375 97.054688 " fill-opacity="1" fill-rule="nonzero"/><path fill="#221410" d="M 192.960938 80.414062 C 196.140625 80.324219 199.410156 80.960938 202.136719 82.230469 C 202.863281 82.503906 203.589844 83.050781 203.589844 83.777344 C 203.589844 84.234375 203.226562 84.6875 202.863281 84.960938 C 200.863281 86.234375 197.777344 86.324219 195.503906 86.507812 C 192.960938 86.6875 190.328125 86.78125 187.875 86.144531 C 186.875 85.871094 185.601562 85.507812 185.148438 84.597656 C 184.148438 82.324219 187.78125 81.140625 189.597656 80.777344 C 190.597656 80.59375 191.78125 80.503906 192.960938 80.414062 Z M 192.960938 80.414062 " fill-opacity="1" fill-rule="nonzero"/><path fill="#221410" d="M 165.160156 81.324219 C 167.523438 80.867188 170.339844 80.960938 172.609375 81.777344 C 173.246094 81.960938 173.882812 82.324219 173.972656 82.960938 C 174.0625 83.324219 173.882812 83.777344 173.519531 84.050781 C 172.519531 85.050781 170.613281 85.507812 169.25 85.960938 C 166.339844 86.871094 162.980469 87.507812 160.34375 86.050781 C 157.347656 84.414062 161.707031 82.324219 163.160156 81.867188 C 163.886719 81.59375 164.523438 81.414062 165.160156 81.324219 Z M 165.160156 81.324219 " fill-opacity="1" fill-rule="nonzero"/><path fill="#221410" d="M 174.15625 109.605469 C 174.609375 107.425781 175.0625 105.242188 175.425781 103.058594 C 175.515625 102.695312 175.789062 102.332031 176.246094 102.421875 C 176.609375 102.421875 176.972656 102.875 176.878906 103.242188 C 176.515625 105.148438 176.152344 107.058594 175.789062 108.96875 C 176.425781 108.96875 177.152344 108.96875 177.789062 108.96875 C 178.152344 108.96875 178.515625 109.425781 178.425781 109.789062 C 178.425781 110.242188 177.96875 110.425781 177.605469 110.425781 C 176.699219 110.425781 175.699219 110.425781 174.789062 110.425781 C 174.425781 110.335938 174.0625 109.96875 174.15625 109.605469 Z M 174.15625 109.605469 " fill-opacity="1" fill-rule="nonzero"/><path fill="#221410" d="M 222.941406 109.425781 C 223.03125 109.515625 223.03125 109.515625 222.941406 109.425781 C 223.214844 109.789062 223.667969 109.789062 224.03125 109.605469 C 225.304688 108.695312 226.121094 107.242188 227.03125 106.058594 C 228.03125 104.695312 229.027344 103.332031 230.027344 101.96875 C 230.027344 101.875 230.121094 101.875 230.121094 101.785156 C 231.9375 101.058594 233.933594 100.875 235.933594 101.332031 C 236.84375 101.511719 237.023438 100.058594 236.117188 99.875 C 232.9375 99.238281 229.664062 99.964844 227.03125 101.785156 C 224.667969 103.421875 223.125 105.96875 222.488281 108.695312 C 222.398438 109.152344 222.667969 109.425781 222.941406 109.425781 Z M 222.941406 109.425781 " fill-opacity="1" fill-rule="nonzero"/><path fill="#ffffff" d="M 173.972656 114.972656 L 190.507812 113.609375 C 190.507812 113.609375 191.144531 119.882812 182.605469 120.609375 C 174.0625 121.246094 173.972656 114.972656 173.972656 114.972656 Z M 173.972656 114.972656 " fill-opacity="1" fill-rule="nonzero"/><path fill="#221410" d="M 187.511719 137.164062 C 187.511719 137.164062 198.59375 137.890625 203.226562 134.433594 L 186.417969 153.261719 Z M 187.511719 137.164062 " fill-opacity="1" fill-rule="nonzero"/><path fill="#1d213f" d="M 223.125 153.625 L 269.457031 162.808594 C 269.457031 162.808594 289.628906 164.902344 297.714844 198.277344 C 305.800781 231.5625 313.429688 260.664062 313.429688 260.664062 L 269.003906 267.121094 L 260.828125 233.65625 C 260.828125 233.65625 255.46875 293.132812 255.558594 299.773438 L 153.078125 299.316406 C 153.078125 299.316406 152.257812 286.492188 149.714844 268.03125 C 146.898438 247.933594 145.628906 252.117188 146.082031 246.570312 L 139.996094 260.027344 C 139.996094 260.027344 108.378906 239.65625 108.378906 239.65625 C 113.738281 226.925781 119.097656 214.285156 124.367188 201.550781 C 126.367188 196.914062 128.273438 192.183594 130.273438 187.546875 C 132.816406 181.453125 134.542969 175.269531 139.8125 170.902344 C 144.898438 166.71875 151.078125 163.992188 157.347656 162.355469 C 174.15625 158.078125 187.417969 154.261719 187.417969 154.261719 C 187.417969 154.261719 184.328125 172.085938 204.773438 171.628906 C 204.773438 171.539062 219.308594 172.175781 223.125 153.625 Z M 223.125 153.625 " fill-opacity="1" fill-rule="nonzero"/><path fill="#c55e4b" d="M 109.921875 240.476562 L 99.472656 260.847656 L 55.957031 223.832031 C 55.957031 223.832031 49.871094 216.011719 49.050781 211.828125 C 48.234375 207.644531 46.960938 200.003906 46.960938 200.003906 L 42.964844 181.632812 C 42.964844 181.632812 37.875 178.453125 37.875 183.726562 C 37.875 189 37.875 201.550781 37.875 201.550781 L 10.804688 201.550781 C 10.804688 201.550781 6.988281 205.824219 10.078125 210.101562 C 10.078125 210.101562 7.351562 213.285156 9.53125 217.558594 C 9.53125 217.558594 6.714844 219.921875 9.53125 224.558594 C 9.53125 224.558594 7.894531 228.378906 9.984375 230.835938 L 35.332031 233.199219 C 35.332031 233.199219 38.695312 233.835938 39.875 235.382812 C 41.058594 236.929688 89.570312 294.40625 89.570312 294.40625 C 89.570312 294.40625 104.835938 310.867188 113.738281 300.773438 C 122.640625 290.675781 138.722656 258.847656 138.722656 258.847656 Z M 109.921875 240.476562 " fill-opacity="1" fill-rule="nonzero"/><path fill="#221410" d="M 100.566406 260.9375 C 103.746094 264.121094 106.652344 267.578125 109.195312 271.304688 C 109.558594 271.851562 108.652344 272.398438 108.285156 271.851562 C 105.835938 268.214844 103.019531 264.757812 99.835938 261.664062 C 99.382812 261.210938 100.109375 260.484375 100.566406 260.9375 Z M 100.566406 260.9375 " fill-opacity="1" fill-rule="nonzero"/><path fill="#221410" d="M 9.984375 217.011719 C 14.347656 216.832031 18.707031 216.738281 23.160156 216.558594 C 24.976562 216.464844 27.609375 216.464844 28.972656 215.011719 C 30.335938 213.554688 29.792969 211.375 28.609375 210.101562 C 27.609375 210.554688 26.429688 210.644531 25.339844 210.738281 C 22.886719 210.917969 20.433594 210.828125 17.980469 210.738281 C 15.527344 210.644531 13.164062 210.644531 10.710938 210.554688 C 9.984375 210.554688 9.984375 209.464844 10.710938 209.464844 C 14.890625 209.554688 18.980469 209.738281 23.160156 209.738281 C 24.886719 209.738281 26.976562 209.828125 28.519531 208.917969 C 30.246094 208.007812 29.972656 205.917969 29.246094 204.371094 C 29.246094 204.28125 29.15625 204.1875 29.246094 204.097656 C 26.15625 203.644531 22.976562 203.1875 19.886719 202.734375 C 19.160156 202.644531 19.523438 201.550781 20.160156 201.640625 L 29.699219 203.097656 C 30.0625 203.1875 30.15625 203.371094 30.0625 203.644531 C 30.15625 203.734375 30.246094 203.734375 30.246094 203.824219 C 30.972656 205.371094 31.335938 207.371094 30.246094 208.917969 C 30.0625 209.191406 29.882812 209.371094 29.609375 209.554688 C 30.789062 211.007812 31.335938 212.917969 30.609375 214.738281 C 30.246094 215.558594 29.699219 216.101562 29.0625 216.464844 C 30.519531 217.375 30.972656 219.285156 30.335938 220.742188 C 29.882812 221.921875 28.972656 222.742188 27.882812 223.289062 C 29.425781 224.558594 30.789062 226.289062 30.425781 228.378906 C 30.0625 230.382812 27.882812 232.019531 25.882812 232.019531 C 25.15625 232.019531 25.15625 230.925781 25.882812 230.925781 C 27.429688 230.925781 29.0625 229.652344 29.335938 228.105469 C 29.609375 226.378906 28.246094 224.925781 26.976562 223.925781 C 26.882812 223.832031 26.882812 223.832031 26.792969 223.742188 C 26.519531 223.832031 26.15625 223.925781 25.882812 224.015625 C 23.523438 224.558594 21.070312 224.832031 18.617188 225.015625 C 15.980469 225.195312 13.4375 225.195312 10.804688 225.105469 C 10.078125 225.105469 10.078125 223.925781 10.804688 224.015625 C 15.074219 224.195312 19.433594 224.015625 23.613281 223.378906 C 25.339844 223.105469 27.339844 222.742188 28.609375 221.378906 C 29.699219 220.195312 29.882812 218.101562 28.335938 217.285156 C 28.15625 217.195312 28.066406 217.101562 28.066406 216.921875 C 27.246094 217.195312 26.339844 217.375 25.519531 217.46875 C 23.066406 217.738281 20.523438 217.738281 18.070312 217.832031 C 15.4375 217.921875 12.710938 218.011719 10.078125 218.101562 C 9.257812 218.195312 9.257812 217.011719 9.984375 217.011719 Z M 9.984375 217.011719 " fill-opacity="1" fill-rule="nonzero"/><path fill="#221410" d="M 36.332031 209.101562 C 37.511719 212.464844 39.332031 215.648438 41.785156 218.375 C 42.238281 218.921875 41.511719 219.648438 40.964844 219.195312 C 38.421875 216.375 36.515625 213.011719 35.242188 209.464844 C 35.058594 208.734375 36.152344 208.464844 36.332031 209.101562 Z M 36.332031 209.101562 " fill-opacity="1" fill-rule="nonzero"/><path fill="#221410" d="M 41.785156 232.835938 C 42.054688 232.746094 42.417969 232.746094 42.511719 233.019531 C 42.601562 233.199219 42.78125 233.382812 42.875 233.5625 C 42.875 233.5625 42.964844 233.65625 42.964844 233.65625 C 42.964844 233.746094 43.054688 233.746094 43.054688 233.746094 C 43.144531 233.835938 43.238281 233.929688 43.328125 234.019531 C 43.417969 234.109375 43.507812 234.199219 43.601562 234.199219 C 43.601562 234.199219 43.601562 234.199219 43.691406 234.199219 C 43.78125 234.199219 43.78125 234.292969 43.875 234.292969 C 44.054688 234.382812 44.328125 234.5625 44.507812 234.65625 C 44.601562 234.746094 44.691406 234.835938 44.78125 235.019531 C 44.78125 235.109375 44.78125 235.292969 44.691406 235.472656 C 44.601562 235.566406 44.507812 235.65625 44.328125 235.746094 C 44.144531 235.746094 44.054688 235.746094 43.875 235.65625 C 42.875 235.199219 42.054688 234.472656 41.601562 233.472656 C 41.421875 233.292969 41.511719 232.925781 41.785156 232.835938 Z M 41.785156 232.835938 " fill-opacity="1" fill-rule="nonzero"/><path fill="#f8ab94" d="M 162.617188 160.898438 L 166.796875 196.550781 C 166.796875 196.550781 160.890625 252.933594 149.988281 269.578125 L 155.167969 328.328125 L 255.738281 328.328125 L 257.738281 269.03125 C 257.738281 269.03125 248.199219 203.007812 249.378906 194.367188 L 255.738281 160.261719 L 244.292969 157.988281 L 238.023438 191.910156 L 179.332031 193.183594 L 174.0625 158.078125 Z M 162.617188 160.898438 " fill-opacity="1" fill-rule="nonzero"/><path fill="#221410" d="M 180.96875 200.824219 C 180.96875 201.207031 180.929688 201.585938 180.855469 201.960938 C 180.78125 202.335938 180.671875 202.699219 180.527344 203.050781 C 180.378906 203.40625 180.199219 203.738281 179.988281 204.058594 C 179.777344 204.375 179.535156 204.667969 179.265625 204.941406 C 178.996094 205.210938 178.703125 205.449219 178.382812 205.664062 C 178.066406 205.875 177.730469 206.054688 177.378906 206.203125 C 177.027344 206.347656 176.664062 206.457031 176.289062 206.53125 C 175.914062 206.605469 175.535156 206.644531 175.152344 206.644531 C 174.773438 206.644531 174.394531 206.605469 174.019531 206.53125 C 173.644531 206.457031 173.28125 206.347656 172.929688 206.203125 C 172.574219 206.054688 172.242188 205.875 171.921875 205.664062 C 171.605469 205.449219 171.3125 205.210938 171.042969 204.941406 C 170.773438 204.667969 170.53125 204.375 170.320312 204.058594 C 170.105469 203.738281 169.929688 203.40625 169.78125 203.050781 C 169.636719 202.699219 169.527344 202.335938 169.453125 201.960938 C 169.375 201.585938 169.339844 201.207031 169.339844 200.824219 C 169.339844 200.441406 169.375 200.0625 169.453125 199.6875 C 169.527344 199.3125 169.636719 198.949219 169.78125 198.597656 C 169.929688 198.242188 170.105469 197.90625 170.320312 197.589844 C 170.53125 197.273438 170.773438 196.976562 171.042969 196.707031 C 171.3125 196.4375 171.605469 196.195312 171.921875 195.984375 C 172.242188 195.773438 172.574219 195.59375 172.929688 195.445312 C 173.28125 195.300781 173.644531 195.191406 174.019531 195.117188 C 174.394531 195.039062 174.773438 195.003906 175.152344 195.003906 C 175.535156 195.003906 175.914062 195.039062 176.289062 195.117188 C 176.664062 195.191406 177.027344 195.300781 177.378906 195.445312 C 177.730469 195.59375 178.066406 195.773438 178.382812 195.984375 C 178.703125 196.195312 178.996094 196.4375 179.265625 196.707031 C 179.535156 196.976562 179.777344 197.273438 179.988281 197.589844 C 180.199219 197.90625 180.378906 198.242188 180.527344 198.597656 C 180.671875 198.949219 180.78125 199.3125 180.855469 199.6875 C 180.929688 200.0625 180.96875 200.441406 180.96875 200.824219 Z M 180.96875 200.824219 " fill-opacity="1" fill-rule="nonzero"/><path fill="#221410" d="M 247.382812 199.097656 C 247.382812 199.476562 247.34375 199.855469 247.269531 200.230469 C 247.195312 200.605469 247.085938 200.96875 246.9375 201.324219 C 246.792969 201.675781 246.613281 202.011719 246.402344 202.328125 C 246.1875 202.648438 245.949219 202.941406 245.679688 203.210938 C 245.40625 203.480469 245.113281 203.722656 244.796875 203.933594 C 244.480469 204.148438 244.144531 204.328125 243.792969 204.472656 C 243.4375 204.621094 243.074219 204.730469 242.699219 204.804688 C 242.328125 204.878906 241.949219 204.917969 241.566406 204.917969 C 241.183594 204.917969 240.808594 204.878906 240.433594 204.804688 C 240.058594 204.730469 239.695312 204.621094 239.339844 204.472656 C 238.988281 204.328125 238.652344 204.148438 238.335938 203.933594 C 238.019531 203.722656 237.726562 203.480469 237.457031 203.210938 C 237.183594 202.941406 236.945312 202.648438 236.730469 202.328125 C 236.519531 202.011719 236.339844 201.675781 236.195312 201.324219 C 236.046875 200.96875 235.9375 200.605469 235.863281 200.230469 C 235.789062 199.855469 235.753906 199.476562 235.753906 199.097656 C 235.753906 198.714844 235.789062 198.335938 235.863281 197.960938 C 235.9375 197.585938 236.046875 197.222656 236.195312 196.867188 C 236.339844 196.515625 236.519531 196.179688 236.730469 195.863281 C 236.945312 195.542969 237.183594 195.25 237.457031 194.980469 C 237.726562 194.710938 238.019531 194.46875 238.335938 194.257812 C 238.652344 194.042969 238.988281 193.863281 239.339844 193.71875 C 239.695312 193.574219 240.058594 193.460938 240.433594 193.386719 C 240.808594 193.3125 241.183594 193.277344 241.566406 193.277344 C 241.949219 193.277344 242.328125 193.3125 242.699219 193.386719 C 243.074219 193.460938 243.4375 193.574219 243.792969 193.71875 C 244.144531 193.863281 244.480469 194.042969 244.796875 194.257812 C 245.113281 194.46875 245.40625 194.710938 245.679688 194.980469 C 245.949219 195.25 246.1875 195.542969 246.402344 195.863281 C 246.613281 196.179688 246.792969 196.515625 246.9375 196.867188 C 247.085938 197.222656 247.195312 197.585938 247.269531 197.960938 C 247.34375 198.335938 247.382812 198.714844 247.382812 199.097656 Z M 247.382812 199.097656 " fill-opacity="1" fill-rule="nonzero"/><path fill="#221410" d="M 356.128906 326.507812 L 230.027344 326.507812 C 223.488281 326.507812 218.21875 321.234375 218.21875 314.6875 L 218.21875 236.472656 C 218.21875 229.925781 223.488281 224.652344 230.027344 224.652344 L 356.128906 224.652344 C 362.671875 224.652344 367.941406 229.925781 367.941406 236.472656 L 367.941406 314.6875 C 367.941406 321.234375 362.671875 326.507812 356.128906 326.507812 Z M 356.128906 326.507812 " fill-opacity="1" fill-rule="nonzero"/><path fill="#1d213f" d="M 363.945312 328.601562 L 222.214844 328.601562 C 220.035156 328.601562 218.21875 326.78125 218.21875 324.597656 L 218.21875 316.050781 L 367.941406 316.050781 L 367.941406 324.597656 C 367.941406 326.78125 366.125 328.601562 363.945312 328.601562 Z M 363.945312 328.601562 " fill-opacity="1" fill-rule="nonzero"/><path fill="#ffffff" d="M 305.433594 274.398438 C 305.433594 275.066406 305.371094 275.730469 305.238281 276.386719 C 305.109375 277.042969 304.917969 277.679688 304.660156 278.296875 C 304.40625 278.914062 304.089844 279.5 303.71875 280.058594 C 303.347656 280.613281 302.925781 281.128906 302.457031 281.601562 C 301.984375 282.074219 301.46875 282.496094 300.914062 282.867188 C 300.359375 283.238281 299.769531 283.550781 299.152344 283.808594 C 298.535156 284.0625 297.902344 284.257812 297.246094 284.386719 C 296.589844 284.519531 295.929688 284.582031 295.261719 284.582031 C 294.59375 284.582031 293.929688 284.519531 293.273438 284.386719 C 292.621094 284.257812 291.984375 284.0625 291.367188 283.808594 C 290.75 283.550781 290.164062 283.238281 289.605469 282.867188 C 289.050781 282.496094 288.539062 282.074219 288.066406 281.601562 C 287.59375 281.128906 287.171875 280.613281 286.800781 280.058594 C 286.429688 279.5 286.113281 278.914062 285.859375 278.296875 C 285.601562 277.679688 285.410156 277.042969 285.28125 276.386719 C 285.148438 275.730469 285.085938 275.066406 285.085938 274.398438 C 285.085938 273.730469 285.148438 273.066406 285.28125 272.410156 C 285.410156 271.753906 285.601562 271.117188 285.859375 270.5 C 286.113281 269.882812 286.429688 269.296875 286.800781 268.738281 C 287.171875 268.183594 287.59375 267.667969 288.066406 267.195312 C 288.539062 266.722656 289.050781 266.300781 289.605469 265.929688 C 290.164062 265.558594 290.75 265.242188 291.367188 264.988281 C 291.984375 264.730469 292.621094 264.539062 293.273438 264.40625 C 293.929688 264.277344 294.59375 264.210938 295.261719 264.210938 C 295.929688 264.210938 296.589844 264.277344 297.246094 264.40625 C 297.902344 264.539062 298.535156 264.730469 299.152344 264.988281 C 299.769531 265.242188 300.359375 265.558594 300.914062 265.929688 C 301.46875 266.300781 301.984375 266.722656 302.457031 267.195312 C 302.925781 267.667969 303.347656 268.183594 303.71875 268.738281 C 304.089844 269.296875 304.40625 269.882812 304.660156 270.5 C 304.917969 271.117188 305.109375 271.753906 305.238281 272.410156 C 305.371094 273.066406 305.433594 273.730469 305.433594 274.398438 Z M 305.433594 274.398438 " fill-opacity="1" fill-rule="nonzero"/><path fill="#c55e4b" d="M 317.335938 327.875 L 304.800781 316.960938 C 304.800781 316.960938 301.074219 315.230469 300.257812 318.414062 L 302.074219 322.597656 L 298.441406 318.777344 C 298.441406 318.777344 295.53125 315.6875 292.082031 319.050781 C 292.082031 319.050781 287.628906 316.234375 285.539062 319.871094 L 285.449219 322.144531 L 282.722656 319.6875 C 282.722656 319.6875 279.179688 318.050781 278.453125 321.324219 L 281.996094 331.601562 C 281.996094 331.601562 284.902344 334.058594 288.628906 331.875 C 288.628906 331.875 293.351562 337.511719 298.621094 332.695312 C 298.621094 332.695312 304.4375 335.695312 307.707031 331.238281 C 307.707031 331.238281 312.976562 336.148438 316.335938 331.964844 C 316.519531 331.875 318.0625 330.148438 317.335938 327.875 Z M 317.335938 327.875 " fill-opacity="1" fill-rule="nonzero"/><path fill="#221410" d="M 302.984375 322.597656 C 304.527344 325.054688 306.253906 327.417969 308.070312 329.691406 C 308.523438 330.238281 307.707031 330.964844 307.253906 330.417969 C 305.433594 328.054688 303.617188 325.601562 301.984375 323.144531 C 301.800781 322.871094 301.984375 322.507812 302.253906 322.417969 C 302.527344 322.234375 302.890625 322.324219 302.984375 322.597656 Z M 302.984375 322.597656 " fill-opacity="1" fill-rule="nonzero"/><path fill="#221410" d="M 293.078125 319.597656 C 294.898438 323.417969 296.714844 327.238281 298.621094 330.964844 C 298.984375 331.601562 297.984375 332.148438 297.621094 331.511719 C 295.714844 327.78125 293.804688 323.960938 292.082031 320.144531 C 291.808594 319.507812 292.808594 318.960938 293.078125 319.597656 Z M 293.078125 319.597656 " fill-opacity="1" fill-rule="nonzero"/><path fill="#221410" d="M 286.355469 322.960938 C 287.175781 325.328125 288.082031 327.691406 289.171875 329.964844 C 289.445312 330.601562 288.535156 331.148438 288.171875 330.511719 C 287.082031 328.144531 286.085938 325.78125 285.265625 323.234375 C 285.175781 322.960938 285.449219 322.597656 285.71875 322.597656 C 285.992188 322.417969 286.175781 322.597656 286.355469 322.960938 Z M 286.355469 322.960938 " fill-opacity="1" fill-rule="nonzero"/></svg>