<svg xmlns="http://www.w3.org/2000/svg" xmlns:xlink="http://www.w3.org/1999/xlink" width="500" zoomAndPan="magnify" viewBox="0 0 375 374.999991" height="500" preserveAspectRatio="xMidYMid meet" version="1.0"><path fill="#221410" d="M 113.894531 40.960938 C 110.089844 42.230469 107.550781 46.035156 106.085938 49.933594 C 104.621094 53.835938 104.230469 58.128906 102.960938 62.027344 C 101.5 66.710938 99.058594 71 95.933594 74.511719 C 94.179688 76.558594 92.03125 78.316406 90.957031 80.851562 C 88.515625 86.605469 92.03125 93.628906 89.882812 99.480469 C 87.734375 105.136719 81 107.378906 77.78125 112.453125 C 76.316406 114.792969 75.632812 117.621094 75.828125 120.351562 L 208.867188 120.351562 C 209.550781 115.667969 207.597656 110.207031 205.058594 106.308594 C 203.105469 103.382812 200.765625 100.84375 199.007812 97.917969 C 197.25 94.894531 196.078125 91.289062 196.859375 87.875 C 198.910156 79.488281 191.101562 71.78125 189.050781 63.394531 C 187.78125 58.226562 188.171875 52.664062 186.515625 47.59375 C 184.855469 42.71875 181.144531 38.621094 176.558594 36.671875 C 170.800781 34.136719 164.160156 35.011719 158.207031 33.0625 C 154.304688 31.792969 150.691406 29.453125 146.59375 29.257812 C 144.152344 29.160156 141.710938 29.84375 139.273438 30.527344 C 136.148438 31.40625 133.027344 32.28125 130.097656 33.746094 C 127.851562 34.816406 125.800781 36.28125 123.460938 36.964844 C 119.945312 38.230469 115.847656 37.742188 113.894531 40.960938 Z M 113.894531 40.960938 " fill-opacity="1" fill-rule="nonzero"/><path fill="#e37952" d="M 173.824219 115.085938 C 174.3125 116.058594 174.019531 147.074219 174.019531 147.074219 L 137.125 147.269531 L 136.929688 104.941406 Z M 173.824219 115.085938 " fill-opacity="1" fill-rule="nonzero"/><path fill="#221410" d="M 174.117188 136.25 L 145.324219 113.914062 L 174.019531 115.085938 Z M 174.117188 136.25 " fill-opacity="1" fill-rule="nonzero"/><path fill="#e37952" d="M 107.550781 71.390625 C 108.820312 67.878906 111.648438 65.246094 116.140625 63.882812 C 119.066406 63.003906 122.386719 62.90625 125.316406 64.078125 C 126.777344 64.660156 128.339844 65.441406 129.316406 66.613281 C 130.585938 68.171875 131.660156 70.125 131.855469 70.707031 C 131.855469 70.804688 131.953125 70.804688 132.050781 70.804688 L 134.78125 70.804688 C 134.878906 70.804688 135.074219 70.707031 135.074219 70.511719 L 135.074219 59.785156 C 135.074219 59.6875 135.171875 59.589844 135.269531 59.589844 C 144.640625 56.371094 149.324219 48.667969 152.546875 40.765625 C 152.644531 40.570312 152.742188 40.570312 152.9375 40.667969 C 166.601562 49.640625 183.195312 48.570312 199.886719 48.472656 C 199.691406 53.152344 198.226562 91.386719 198.226562 91.386719 C 198.128906 94.117188 197.25 97.042969 196.273438 99.578125 C 190.027344 116.449219 169.238281 123.277344 152.9375 118.402344 C 141.613281 114.988281 132.148438 105.820312 128.535156 94.503906 C 128.242188 93.628906 127.949219 92.652344 127.949219 91.773438 C 127.949219 91.578125 127.753906 91.484375 127.558594 91.578125 C 118.1875 97.433594 108.625 89.238281 107.0625 79.679688 C 106.476562 76.753906 106.671875 73.925781 107.550781 71.390625 Z M 107.550781 71.390625 " fill-opacity="1" fill-rule="nonzero"/><path fill="#221410" d="M 164.0625 77.144531 C 164.0625 77.585938 163.980469 78.007812 163.8125 78.414062 C 163.644531 78.820312 163.402344 79.179688 163.09375 79.492188 C 162.78125 79.800781 162.421875 80.039062 162.015625 80.210938 C 161.609375 80.378906 161.1875 80.460938 160.746094 80.460938 C 160.304688 80.460938 159.882812 80.378906 159.476562 80.210938 C 159.070312 80.039062 158.710938 79.800781 158.398438 79.492188 C 158.089844 79.179688 157.847656 78.820312 157.679688 78.414062 C 157.511719 78.007812 157.425781 77.585938 157.425781 77.144531 C 157.425781 76.707031 157.511719 76.28125 157.679688 75.875 C 157.847656 75.46875 158.089844 75.113281 158.398438 74.800781 C 158.710938 74.488281 159.070312 74.25 159.476562 74.082031 C 159.882812 73.914062 160.304688 73.828125 160.746094 73.828125 C 161.1875 73.828125 161.609375 73.914062 162.015625 74.082031 C 162.421875 74.25 162.78125 74.488281 163.09375 74.800781 C 163.402344 75.113281 163.644531 75.46875 163.8125 75.875 C 163.980469 76.28125 164.0625 76.707031 164.0625 77.144531 Z M 164.0625 77.144531 " fill-opacity="1" fill-rule="nonzero"/><path fill="#221410" d="M 192.761719 77.144531 C 192.761719 77.535156 192.6875 77.90625 192.539062 78.265625 C 192.390625 78.625 192.175781 78.941406 191.902344 79.214844 C 191.628906 79.488281 191.3125 79.699219 190.953125 79.847656 C 190.59375 79.996094 190.222656 80.070312 189.832031 80.070312 C 189.445312 80.070312 189.070312 79.996094 188.710938 79.847656 C 188.351562 79.699219 188.035156 79.488281 187.761719 79.214844 C 187.488281 78.941406 187.277344 78.625 187.128906 78.265625 C 186.980469 77.90625 186.902344 77.535156 186.90625 77.144531 C 186.902344 76.757812 186.980469 76.382812 187.128906 76.027344 C 187.277344 75.667969 187.488281 75.351562 187.761719 75.078125 C 188.035156 74.800781 188.351562 74.589844 188.710938 74.441406 C 189.070312 74.292969 189.445312 74.21875 189.832031 74.21875 C 190.222656 74.21875 190.59375 74.292969 190.953125 74.441406 C 191.3125 74.589844 191.628906 74.800781 191.902344 75.078125 C 192.175781 75.351562 192.390625 75.667969 192.539062 76.027344 C 192.6875 76.382812 192.761719 76.757812 192.761719 77.144531 Z M 192.761719 77.144531 " fill-opacity="1" fill-rule="nonzero"/><path fill="#221410" d="M 180.949219 88.75 C 181.4375 88.652344 181.828125 88.460938 182.316406 88.363281 C 182.511719 88.363281 182.707031 88.265625 183 88.167969 C 182.902344 88.070312 182.902344 87.972656 182.804688 87.777344 C 182.707031 87.484375 182.511719 87.191406 182.414062 86.898438 C 182.121094 86.3125 181.925781 85.726562 181.632812 85.046875 C 181.144531 83.875 180.558594 82.605469 180.070312 81.4375 C 179.679688 80.460938 181.144531 79.777344 181.535156 80.753906 C 182.414062 82.703125 183.195312 84.65625 184.074219 86.703125 C 184.367188 87.484375 185.246094 88.847656 184.171875 89.433594 C 183.78125 89.628906 183.195312 89.726562 182.707031 89.921875 L 181.144531 90.3125 C 180.753906 90.410156 180.265625 90.019531 180.265625 89.628906 C 180.265625 89.238281 180.558594 88.847656 180.949219 88.75 Z M 180.949219 88.75 " fill-opacity="1" fill-rule="nonzero"/><path fill="#221410" d="M 200.082031 65.636719 C 200.179688 65.636719 200.179688 65.636719 200.082031 65.636719 C 200.472656 65.832031 200.667969 66.125 200.667969 66.515625 C 200.667969 66.90625 200.472656 67.199219 200.082031 67.394531 C 199.105469 67.976562 197.445312 68.074219 196.273438 68.269531 C 194.808594 68.464844 193.445312 68.464844 191.980469 68.367188 C 189.832031 68.269531 187.78125 68.171875 185.832031 67.296875 C 185.539062 67.199219 185.246094 67.003906 185.050781 66.808594 C 184.464844 66.222656 184.757812 65.441406 185.441406 65.148438 C 187.390625 64.078125 190.515625 64.078125 192.664062 64.078125 C 195.101562 64.078125 198.03125 64.371094 200.082031 65.636719 Z M 200.082031 65.636719 " fill-opacity="1" fill-rule="nonzero"/><path fill="#221410" d="M 167.96875 65.34375 C 167.96875 65.34375 168.066406 65.34375 168.066406 65.34375 C 168.359375 65.441406 168.652344 65.734375 168.75 66.027344 C 168.847656 66.417969 168.652344 66.808594 168.261719 67.003906 C 167.285156 67.78125 165.527344 68.171875 164.257812 68.464844 C 162.699219 68.855469 161.136719 69.148438 159.574219 69.34375 C 157.230469 69.636719 154.988281 69.832031 152.742188 69.246094 C 152.351562 69.148438 152.058594 69.050781 151.765625 68.855469 C 151.082031 68.367188 151.179688 67.492188 151.863281 67.101562 C 153.816406 65.734375 157.230469 65.148438 159.574219 64.855469 C 162.210938 64.5625 165.527344 64.371094 167.96875 65.34375 Z M 167.96875 65.34375 " fill-opacity="1" fill-rule="nonzero"/><path fill="#221410" d="M 116.824219 68.464844 C 119.457031 69.832031 121.214844 72.367188 122.386719 74.902344 C 123.851562 78.023438 124.925781 81.242188 125.703125 84.558594 C 125.898438 85.4375 125.21875 85.921875 124.535156 85.921875 C 124.535156 85.921875 124.4375 85.921875 124.4375 85.921875 L 124.144531 85.921875 C 123.851562 85.921875 123.65625 85.824219 123.363281 85.628906 C 121.703125 83.972656 120.238281 82.121094 119.164062 80.070312 C 118.675781 79.097656 118.1875 77.925781 118.285156 76.753906 C 118.382812 75.78125 118.773438 74.902344 119.652344 74.414062 C 118.675781 72.757812 117.410156 71.292969 115.652344 70.320312 C 114.382812 69.734375 115.554688 67.78125 116.824219 68.464844 Z M 116.824219 68.464844 " fill-opacity="1" fill-rule="nonzero"/><path fill="#ffffff" d="M 185.832031 94.019531 L 164.746094 95.96875 C 164.746094 95.96875 165.332031 103.964844 176.265625 102.992188 C 187.195312 101.917969 185.832031 94.019531 185.832031 94.019531 Z M 185.832031 94.019531 " fill-opacity="1" fill-rule="nonzero"/><path fill="#504446" d="M 200.960938 48.082031 L 106.671875 48.082031 L 106.671875 43.011719 C 106.671875 19.3125 125.996094 0 149.8125 0 L 155.867188 0 C 180.851562 0 201.058594 20.1875 201.058594 45.15625 L 201.058594 48.082031 Z M 200.960938 48.082031 " fill-opacity="1" fill-rule="nonzero"/><path fill="#504446" d="M 106.671875 48.082031 L 119.359375 57.835938 C 121.019531 59.101562 122.972656 59.785156 125.023438 59.785156 L 202.519531 59.785156 C 205.351562 59.785156 207.011719 56.371094 205.253906 53.933594 L 200.960938 48.082031 Z M 106.671875 48.082031 " fill-opacity="1" fill-rule="nonzero"/><path fill="#e37952" d="M 137.90625 147.171875 L 144.054688 167.652344 L 175.386719 163.363281 L 174.507812 143.5625 C 174.507812 143.5625 146.105469 134.785156 137.90625 147.171875 Z M 137.90625 147.171875 " fill-opacity="1" fill-rule="nonzero"/><path fill="#8da5a6" d="M 137.222656 142.878906 L 88.027344 152.535156 C 88.027344 152.535156 66.75 154.777344 58.257812 189.792969 C 49.765625 224.804688 41.664062 255.429688 41.664062 255.429688 L 88.515625 262.257812 L 97.203125 227.046875 C 97.203125 227.046875 102.765625 289.5625 102.765625 296.488281 L 210.71875 296 C 210.71875 296 210.425781 285.175781 214.332031 263.035156 C 218.039062 241.96875 218.625 246.261719 218.136719 240.410156 L 224.484375 254.550781 L 257.765625 233.191406 L 229.363281 165.800781 C 229.363281 165.800781 223.703125 154.292969 206.132812 151.851562 C 188.5625 149.414062 174.019531 143.269531 174.019531 143.269531 C 174.019531 143.269531 177.828125 162.191406 156.253906 161.703125 C 156.257812 161.800781 141.222656 162.386719 137.222656 142.878906 Z M 137.222656 142.878906 " fill-opacity="1" fill-rule="nonzero"/><path fill="#e37952" d="M 256.203125 234.265625 L 267.234375 255.722656 L 313.109375 216.808594 C 313.109375 216.808594 319.453125 208.515625 320.429688 204.128906 C 321.40625 199.738281 322.578125 191.742188 322.578125 191.742188 L 326.773438 172.433594 C 326.773438 172.433594 332.144531 169.019531 332.144531 174.675781 C 332.144531 180.234375 332.144531 193.402344 332.144531 193.402344 L 360.644531 193.402344 C 360.644531 193.402344 364.644531 197.984375 361.425781 202.375 C 361.425781 202.375 364.351562 205.6875 362.011719 210.175781 C 362.011719 210.175781 365.035156 212.710938 362.011719 217.492188 C 362.011719 217.492188 363.765625 221.488281 361.523438 224.023438 L 334.875 226.558594 C 334.875 226.558594 331.363281 227.242188 330.09375 228.902344 C 328.824219 230.558594 277.777344 291.027344 277.777344 291.027344 C 277.777344 291.027344 261.671875 308.289062 252.300781 297.660156 C 242.929688 287.027344 226.042969 253.574219 226.042969 253.574219 Z M 256.203125 234.265625 " fill-opacity="1" fill-rule="nonzero"/><path fill="#504446" d="M 202.910156 326.429688 C 192.957031 328.769531 182.902344 331.015625 172.945312 333.0625 C 153.816406 336.867188 133.027344 339.304688 115.652344 330.625 C 111.453125 328.574219 101.792969 325.84375 98.667969 322.433594 C 99.9375 315.214844 103.449219 305.949219 102.863281 298.34375 C 101.109375 274.738281 98.960938 251.332031 97.105469 227.730469 C 100.816406 220.027344 102.28125 211.347656 103.058594 202.859375 C 104.621094 185.402344 104.71875 167.359375 101.011719 150.195312 C 107.941406 148.828125 114.96875 147.464844 121.898438 146 C 132.050781 166.289062 148.933594 187.355469 164.355469 202.859375 C 175.484375 184.816406 181.632812 168.335938 186.613281 147.757812 C 192.859375 149.121094 199.398438 150.390625 205.742188 151.65625 C 207.597656 152.046875 208.867188 152.339844 210.425781 152.828125 C 217.941406 188.71875 223.703125 224.804688 216.1875 259.816406 C 215.113281 264.792969 213.648438 269.765625 212.867188 274.835938 C 212.085938 280.105469 211.988281 285.371094 211.988281 290.734375 C 211.890625 302.046875 211.695312 313.554688 213.746094 324.675781 C 214.039062 324.089844 213.746094 323.210938 213.160156 322.917969 " fill-opacity="1" fill-rule="nonzero"/><path fill="#ffffff" d="M 27.707031 363.394531 C 25.074219 358.421875 22.339844 353.445312 21.265625 347.984375 C 19.507812 339.792969 21.070312 330.527344 26.242188 323.894531 C 104.132812 329.160156 184.171875 330.039062 261.867188 320.089844 C 263.234375 321.066406 265.183594 325.261719 266.0625 326.625 C 271.527344 335.695312 269.1875 347.886719 262.746094 356.273438 C 236.488281 352.859375 210.71875 352.761719 184.269531 353.054688 C 149.910156 353.445312 115.554688 353.933594 81.292969 355.785156 C 64.019531 356.761719 43.714844 358.515625 27.707031 363.394531 Z M 27.707031 363.394531 " fill-opacity="1" fill-rule="nonzero"/><path fill="#ffffff" d="M 22.046875 375 C 18.726562 370.609375 15.3125 366.125 13.359375 360.957031 C 10.335938 353.152344 10.238281 343.789062 14.042969 336.378906 C 88.515625 327.992188 164.257812 315.019531 236 291.808594 C 237.464844 292.585938 240.003906 296.292969 241.074219 297.5625 C 247.8125 305.558594 247.519531 317.945312 242.929688 327.308594 C 217.550781 328.480469 193.25 332.867188 168.261719 337.742188 C 135.855469 344.082031 103.546875 350.519531 71.4375 358.324219 C 55.234375 362.125 36.394531 367.394531 22.046875 375 Z M 22.046875 375 " fill-opacity="1" fill-rule="nonzero"/><path fill="#ffffff" d="M 132.539062 318.335938 L 125.316406 319.699219 C 125.609375 294.832031 127.460938 272.691406 130.878906 253.769531 C 131.074219 252.601562 131.269531 251.429688 131.5625 250.261719 C 132.441406 245.578125 133.222656 241.191406 133.609375 236.703125 C 134.683594 224.121094 132.246094 210.175781 125.898438 192.816406 C 123.753906 186.964844 121.3125 181.015625 118.96875 175.359375 C 115.554688 166.96875 111.355469 157.414062 108.625 148.535156 L 115.847656 147.269531 C 118.578125 155.851562 122.09375 164.433594 125.511719 172.722656 C 127.851562 178.480469 130.292969 184.429688 132.539062 190.476562 C 136.734375 201.984375 142.199219 219.441406 140.738281 237.386719 C 140.347656 242.261719 139.46875 247.042969 138.589844 251.722656 C 138.394531 252.894531 138.199219 254.0625 137.90625 255.234375 C 134.390625 273.570312 132.734375 293.855469 132.539062 318.335938 Z M 132.539062 318.335938 " fill-opacity="1" fill-rule="nonzero"/><path fill="#ffffff" d="M 196.273438 303.414062 L 188.757812 305.265625 L 192.664062 274.15625 C 193.542969 267.035156 194.421875 259.71875 195.882812 252.503906 C 196.859375 247.722656 197.933594 242.847656 199.105469 238.167969 C 201.839844 226.753906 204.375 216.027344 204.179688 205.007812 C 203.984375 195.253906 201.644531 185.890625 199.105469 175.941406 C 197.152344 168.140625 195.003906 157.414062 194.128906 149.21875 L 201.546875 150.683594 C 202.324219 158.386719 203.984375 166.773438 205.839844 174.285156 C 208.28125 184.136719 210.816406 194.375 211.109375 204.8125 C 211.402344 216.808594 208.574219 228.511719 205.839844 239.824219 C 204.765625 244.410156 203.59375 249.1875 202.714844 253.867188 C 201.351562 260.890625 200.472656 268.109375 199.59375 275.128906 Z M 196.273438 303.414062 " fill-opacity="1" fill-rule="nonzero"/><path fill="#e37952" d="M 83.636719 261.28125 L 70.460938 311.019531 L 151.472656 334.429688 C 151.472656 334.429688 158.695312 333.355469 161.332031 330.917969 C 163.964844 328.480469 169.335938 328.382812 170.898438 328.1875 C 172.457031 327.894531 185.050781 326.527344 185.050781 326.527344 C 185.050781 326.527344 187.78125 327.992188 186.222656 330.039062 C 186.222656 330.039062 177.4375 333.941406 175.289062 334.523438 C 173.140625 335.109375 170.117188 338.035156 169.335938 340.28125 C 168.554688 342.523438 170.3125 345.351562 170.3125 345.351562 L 190.90625 350.421875 L 201.742188 352.179688 L 212.085938 352.082031 C 212.085938 352.082031 214.234375 353.054688 214.332031 354.8125 C 214.429688 356.566406 201.742188 357.640625 201.742188 357.640625 L 174.605469 360.371094 C 174.605469 360.371094 149.324219 354.324219 146.496094 353.542969 C 143.664062 352.761719 51.425781 342.71875 51.425781 342.71875 C 51.425781 342.71875 30.832031 339.011719 32.296875 320.382812 L 44.59375 255.820312 Z M 83.636719 261.28125 " fill-opacity="1" fill-rule="nonzero"/><path fill="#221410" d="M 83.636719 261.28125 L 43.8125 260.011719 L 44.59375 255.820312 Z M 83.636719 261.28125 " fill-opacity="1" fill-rule="nonzero"/><path fill="#221410" d="M 256.203125 234.265625 L 228.191406 257.574219 L 226.140625 253.574219 Z M 256.203125 234.265625 " fill-opacity="1" fill-rule="nonzero"/><path fill="#221410" d="M 266.0625 255.820312 C 262.648438 259.136719 259.621094 262.839844 256.984375 266.742188 C 256.59375 267.328125 257.570312 267.914062 257.960938 267.328125 C 260.5 263.425781 263.523438 259.914062 266.84375 256.597656 C 267.332031 256.113281 266.550781 255.332031 266.0625 255.820312 Z M 266.0625 255.820312 " fill-opacity="1" fill-rule="nonzero"/><path fill="#221410" d="M 166.503906 227.242188 C 166.308594 219.246094 165.820312 211.347656 165.039062 203.347656 C 164.941406 202.566406 163.773438 202.566406 163.871094 203.347656 C 165.136719 217.492188 165.625 231.632812 165.332031 245.773438 C 165.136719 252.796875 164.84375 259.914062 164.257812 266.9375 C 163.675781 273.960938 162.894531 281.078125 162.113281 288.101562 C 161.234375 296 160.550781 303.902344 160.453125 311.800781 C 160.453125 312.582031 161.625 312.582031 161.625 311.800781 C 161.722656 297.660156 163.964844 283.710938 165.234375 269.667969 C 166.503906 255.527344 166.894531 241.386719 166.503906 227.242188 Z M 166.503906 227.242188 " fill-opacity="1" fill-rule="nonzero"/><path fill="#221410" d="M 361.523438 209.589844 C 356.933594 209.394531 352.25 209.296875 347.664062 209.101562 C 345.710938 209.003906 342.976562 209.003906 341.511719 207.542969 C 340.050781 206.078125 340.632812 203.738281 341.902344 202.375 C 342.976562 202.859375 344.246094 202.957031 345.417969 203.054688 C 347.953125 203.25 350.589844 203.152344 353.128906 203.054688 C 355.664062 202.957031 358.203125 202.957031 360.839844 202.859375 C 361.621094 202.859375 361.621094 201.691406 360.839844 201.691406 C 356.445312 201.789062 352.054688 201.984375 347.757812 201.984375 C 346.003906 201.984375 343.757812 202.082031 342.097656 201.105469 C 340.339844 200.128906 340.632812 197.984375 341.316406 196.328125 C 341.316406 196.230469 341.414062 196.132812 341.316406 196.035156 C 344.636719 195.546875 347.953125 195.058594 351.175781 194.570312 C 351.957031 194.472656 351.566406 193.304688 350.882812 193.402344 L 340.828125 194.863281 C 340.4375 194.960938 340.339844 195.15625 340.4375 195.449219 C 340.339844 195.449219 340.242188 195.546875 340.242188 195.644531 C 339.464844 197.300781 339.074219 199.449219 340.242188 201.007812 C 340.4375 201.300781 340.632812 201.496094 340.925781 201.691406 C 339.660156 203.25 339.074219 205.300781 339.953125 207.152344 C 340.339844 207.933594 340.925781 208.515625 341.609375 209.003906 C 340.148438 209.882812 339.660156 211.929688 340.339844 213.492188 C 340.828125 214.660156 341.804688 215.539062 342.878906 216.125 C 341.21875 217.394531 339.855469 219.246094 340.242188 221.488281 C 340.632812 223.632812 342.878906 225.292969 345.027344 225.292969 C 345.808594 225.292969 345.808594 224.121094 345.027344 224.121094 C 343.464844 224.121094 341.707031 222.757812 341.414062 221.097656 C 341.121094 219.246094 342.585938 217.683594 343.953125 216.710938 C 344.050781 216.613281 344.050781 216.613281 344.148438 216.515625 C 344.441406 216.613281 344.832031 216.710938 345.125 216.808594 C 347.566406 217.394531 350.199219 217.585938 352.738281 217.78125 C 355.472656 217.976562 358.203125 217.976562 360.9375 217.878906 C 361.71875 217.878906 361.71875 216.710938 360.9375 216.710938 C 356.445312 216.90625 351.859375 216.710938 347.371094 216.027344 C 345.515625 215.734375 343.464844 215.34375 342.097656 213.980469 C 340.925781 212.710938 340.730469 210.566406 342.390625 209.6875 C 342.585938 209.589844 342.683594 209.492188 342.683594 209.296875 C 343.5625 209.589844 344.441406 209.785156 345.320312 209.882812 C 347.859375 210.175781 350.492188 210.175781 353.128906 210.175781 C 355.957031 210.273438 358.691406 210.371094 361.523438 210.46875 C 362.304688 210.761719 362.304688 209.589844 361.523438 209.589844 Z M 361.523438 209.589844 " fill-opacity="1" fill-rule="nonzero"/><path fill="#221410" d="M 333.703125 201.300781 C 332.4375 204.910156 330.484375 208.226562 328.042969 211.054688 C 327.554688 211.636719 328.335938 212.417969 328.824219 211.832031 C 331.460938 208.808594 333.507812 205.398438 334.777344 201.59375 C 335.070312 200.910156 333.996094 200.617188 333.703125 201.300781 Z M 333.703125 201.300781 " fill-opacity="1" fill-rule="nonzero"/><path fill="#221410" d="M 328.042969 226.171875 C 327.75 226.074219 327.359375 226.074219 327.261719 226.367188 C 327.164062 226.558594 327.066406 226.753906 326.871094 226.949219 C 326.871094 226.949219 326.773438 227.046875 326.773438 227.046875 C 326.773438 227.046875 326.675781 227.144531 326.675781 227.144531 C 326.578125 227.242188 326.480469 227.339844 326.382812 227.4375 C 326.285156 227.535156 326.1875 227.632812 326.089844 227.632812 C 326.089844 227.632812 326.089844 227.632812 325.992188 227.632812 C 325.894531 227.632812 325.894531 227.730469 325.796875 227.730469 C 325.601562 227.828125 325.40625 228.023438 325.113281 228.121094 C 325.015625 228.21875 324.917969 228.316406 324.820312 228.511719 C 324.820312 228.609375 324.820312 228.804688 324.917969 229 C 325.015625 229.097656 325.113281 229.195312 325.308594 229.292969 C 325.503906 229.292969 325.601562 229.292969 325.796875 229.195312 C 326.871094 228.707031 327.75 227.925781 328.238281 226.949219 C 328.433594 226.753906 328.335938 226.367188 328.042969 226.171875 Z M 328.042969 226.171875 " fill-opacity="1" fill-rule="nonzero"/><path fill="#221410" d="M 254.058594 226.753906 C 245.371094 231.4375 237.074219 236.996094 229.070312 242.75 C 226.824219 244.410156 224.484375 245.96875 222.238281 247.625 C 221.652344 248.015625 222.238281 249.089844 222.824219 248.601562 C 230.828125 242.847656 238.832031 236.996094 247.324219 231.925781 C 249.761719 230.460938 252.203125 229.097656 254.644531 227.730469 C 255.328125 227.339844 254.742188 226.367188 254.058594 226.753906 Z M 254.058594 226.753906 " fill-opacity="1" fill-rule="nonzero"/><path fill="#221410" d="M 89.6875 253.964844 C 84.027344 252.503906 78.367188 251.136719 72.605469 250.164062 C 66.75 249.1875 60.894531 248.601562 55.039062 247.820312 C 51.71875 247.433594 48.304688 246.945312 44.984375 246.554688 C 44.203125 246.457031 44.203125 247.625 44.984375 247.722656 C 50.839844 248.503906 56.699219 249.285156 62.554688 249.96875 C 68.3125 250.746094 74.070312 251.527344 79.828125 252.796875 C 83.050781 253.480469 86.273438 254.355469 89.394531 255.136719 C 90.078125 255.332031 90.371094 254.160156 89.6875 253.964844 Z M 89.6875 253.964844 " fill-opacity="1" fill-rule="nonzero"/><path fill="#221410" d="M 181.242188 147.367188 C 181.046875 155.558594 175.582031 163.363281 167.96875 166.484375 C 165.625 167.457031 163.1875 167.847656 160.648438 168.042969 C 158.011719 168.238281 155.28125 168.238281 152.644531 167.847656 C 150.007812 167.457031 147.570312 166.386719 145.226562 165.117188 C 143.078125 164.042969 140.933594 162.777344 139.371094 160.921875 C 137.515625 158.777344 136.246094 156.046875 135.074219 153.609375 C 133.707031 150.878906 132.539062 148.148438 131.757812 145.222656 C 131.5625 144.539062 130.390625 144.832031 130.585938 145.511719 C 131.367188 148.246094 132.441406 150.78125 133.609375 153.316406 C 134.78125 155.753906 135.953125 158.289062 137.515625 160.4375 C 138.980469 162.484375 140.933594 164.042969 143.078125 165.214844 C 145.421875 166.578125 147.863281 167.847656 150.398438 168.433594 C 153.132812 169.117188 155.964844 169.214844 158.792969 169.117188 C 161.527344 169.019531 164.257812 168.726562 166.894531 167.847656 C 170.996094 166.484375 174.605469 163.847656 177.339844 160.53125 C 180.363281 156.730469 182.21875 152.046875 182.316406 147.171875 C 182.414062 146.585938 181.242188 146.585938 181.242188 147.367188 Z M 181.242188 147.367188 " fill-opacity="1" fill-rule="nonzero"/><path fill="#221410" d="M 140.640625 315.214844 C 134.195312 316.675781 127.851562 318.238281 121.410156 319.699219 C 120.726562 319.894531 121.019531 320.96875 121.703125 320.871094 C 128.144531 319.410156 134.488281 317.847656 140.933594 316.386719 C 141.710938 316.191406 141.417969 315.117188 140.640625 315.214844 Z M 140.640625 315.214844 " fill-opacity="1" fill-rule="nonzero"/><path fill="#221410" d="M 201.9375 301.171875 C 195.6875 302.730469 189.441406 304.292969 183.195312 305.949219 C 182.511719 306.144531 182.804688 307.21875 183.488281 307.121094 C 189.734375 305.558594 195.980469 304 202.230469 302.339844 C 202.910156 302.046875 202.617188 300.976562 201.9375 301.171875 Z M 201.9375 301.171875 " fill-opacity="1" fill-rule="nonzero"/><path fill="#221410" d="M 245.175781 321.847656 C 244.882812 321.75 244.589844 321.945312 244.492188 322.238281 C 244.003906 323.796875 243.320312 325.164062 242.441406 326.527344 C 242.34375 326.527344 242.34375 326.527344 242.246094 326.527344 C 223.898438 327.113281 205.644531 329.355469 187.683594 332.964844 C 182.609375 334.039062 177.4375 335.207031 172.359375 336.476562 C 171.675781 336.671875 171.96875 337.742188 172.652344 337.644531 C 190.417969 333.160156 208.574219 330.136719 226.824219 328.671875 C 231.902344 328.285156 237.074219 327.992188 242.148438 327.796875 C 242.246094 327.796875 242.441406 327.699219 242.441406 327.699219 C 242.734375 327.894531 243.027344 327.699219 243.222656 327.503906 C 244.199219 326.039062 244.980469 324.382812 245.46875 322.722656 C 245.664062 322.238281 245.46875 321.945312 245.175781 321.847656 Z M 245.175781 321.847656 " fill-opacity="1" fill-rule="nonzero"/><path fill="#221410" d="M 109.894531 349.15625 C 102.183594 350.910156 94.472656 352.566406 86.761719 354.324219 C 86.078125 354.519531 86.371094 355.496094 87.054688 355.300781 C 94.765625 353.542969 102.476562 351.886719 110.1875 350.128906 C 110.867188 350.03125 110.574219 349.058594 109.894531 349.15625 Z M 109.894531 349.15625 " fill-opacity="1" fill-rule="nonzero"/><path fill="#221410" d="M 35.125 332.769531 C 30.636719 333.453125 26.242188 334.039062 21.753906 334.71875 C 20.972656 334.816406 21.363281 335.988281 22.046875 335.890625 L 35.417969 333.941406 C 36.101562 333.746094 35.808594 332.671875 35.125 332.769531 Z M 35.125 332.769531 " fill-opacity="1" fill-rule="nonzero"/><path fill="#221410" d="M 64.992188 310.4375 C 62.164062 310.242188 59.429688 310.4375 56.699219 311.019531 C 55.917969 311.214844 56.308594 312.289062 56.988281 312.191406 C 59.625 311.703125 62.359375 311.507812 64.992188 311.605469 C 65.773438 311.605469 65.773438 310.4375 64.992188 310.4375 Z M 64.992188 310.4375 " fill-opacity="1" fill-rule="nonzero"/><path fill="#221410" d="M 200.375 47.496094 C 188.367188 47.398438 176.265625 47.398438 164.257812 47.398438 C 152.253906 47.398438 140.25 47.398438 128.242188 47.398438 C 121.507812 47.398438 114.675781 47.398438 107.941406 47.398438 C 107.160156 47.398438 107.160156 48.570312 107.941406 48.570312 C 119.945312 48.570312 132.050781 48.570312 144.054688 48.570312 C 156.0625 48.570312 168.066406 48.570312 180.070312 48.667969 C 186.808594 48.667969 193.640625 48.765625 200.375 48.765625 C 201.15625 48.667969 201.15625 47.496094 200.375 47.496094 Z M 200.375 47.496094 " fill-opacity="1" fill-rule="nonzero"/><path fill="#221410" d="M 187.390625 48.570312 L 170.507812 48.570312 C 169.921875 48.570312 169.53125 48.179688 169.53125 47.59375 L 169.53125 29.257812 C 169.53125 24.382812 173.53125 20.382812 178.414062 20.382812 L 178.511719 20.382812 C 183.390625 20.382812 187.390625 24.382812 187.390625 29.257812 Z M 170.703125 47.398438 L 186.320312 47.398438 L 186.320312 29.257812 C 186.320312 24.96875 182.804688 21.554688 178.609375 21.554688 L 178.511719 21.554688 C 174.214844 21.554688 170.800781 25.066406 170.800781 29.257812 L 170.800781 47.398438 Z M 170.703125 47.398438 " fill-opacity="1" fill-rule="nonzero"/><path fill="#221410" d="M 170.703125 48.570312 L 159.476562 48.570312 L 159.476562 37.546875 C 159.476562 35.207031 160.257812 33.453125 161.722656 32.085938 C 164.84375 29.453125 169.921875 30.136719 170.214844 30.136719 L 170.703125 30.234375 Z M 160.648438 47.398438 L 169.53125 47.398438 L 169.53125 31.308594 C 168.261719 31.210938 164.648438 31.113281 162.503906 32.964844 C 161.332031 34.039062 160.648438 35.5 160.648438 37.546875 Z M 160.648438 47.398438 " fill-opacity="1" fill-rule="nonzero"/><path fill="#221410" d="M 196.566406 48.570312 L 186.222656 48.570312 L 186.222656 30.332031 L 186.710938 30.234375 C 186.902344 30.234375 191.394531 29.550781 194.324219 31.988281 C 195.785156 33.257812 196.566406 35.109375 196.566406 37.546875 Z M 187.390625 47.398438 L 195.492188 47.398438 L 195.492188 37.546875 C 195.492188 35.5 194.90625 33.84375 193.640625 32.769531 C 191.6875 31.113281 188.5625 31.113281 187.390625 31.210938 Z M 187.390625 47.398438 " fill-opacity="1" fill-rule="nonzero"/></svg>